<svg height="340" style="background-color: #ffffff; border: 1px solid #e5e7eb; border-radius: 8px;" width="840" xmlns="http://www.w3.org/2000/svg"><defs><style>.gate-group:hover rect { opacity: 1; stroke-width: 3; }
                         .gate-group:hover circle { stroke-width: 3; }
                         text { font-family: 'SF Pro Display', 'Segoe UI', system-ui, sans-serif; }</style></defs><text fill="#111827" font-size="18" font-weight="bold" text-anchor="middle" x="420" y="35">UCCSD Inspired Ansatz</text><g><text fill="#374151" font-size="14" x="30" y="75">q0 |0⟩</text><line stroke="#9ca3af" stroke-width="2" x1="70" x2="790" y1="70" y2="70" /></g><g><text fill="#374151" font-size="14" x="30" y="135">q1 |0⟩</text><line stroke="#9ca3af" stroke-width="2" x1="70" x2="790" y1="130" y2="130" /></g><g><text fill="#374151" font-size="14" x="30" y="195">q2 |0⟩</text><line stroke="#9ca3af" stroke-width="2" x1="70" x2="790" y1="190" y2="190" /></g><g><text fill="#374151" font-size="14" x="30" y="255">q3 |0⟩</text><line stroke="#9ca3af" stroke-width="2" x1="70" x2="790" y1="250" y2="250" /></g><g class="gate-group"><rect fill="#ef4444" height="24" rx="4" stroke="#ffffff" stroke-width="2" width="30" x="115" y="58" /><text fill="#ffffff" font-size="12" font-weight="bold" text-anchor="middle" x="130" y="75">X</text><title>:x gate on qubit 0</title></g><g class="gate-group"><rect fill="#ef4444" height="24" rx="4" stroke="#ffffff" stroke-width="2" width="30" x="115" y="118" /><text fill="#ffffff" font-size="12" font-weight="bold" text-anchor="middle" x="130" y="135">X</text><title>:x gate on qubit 1</title></g><g class="gate-group"><rect fill="#10b981" height="24" rx="4" stroke="#ffffff" stroke-width="2" width="30" x="175" y="58" /><text fill="#ffffff" font-size="12" font-weight="bold" text-anchor="middle" x="190" y="75">RY</text><title>:ry gate on qubit 0, θ=0.007 (0.002π)</title></g><g class="gate-group"><circle cx="250" cy="70" fill="#374151" r="6" stroke="#ffffff" stroke-width="2" /><circle cx="250" cy="190" fill="none" r="12" stroke="#374151" stroke-width="2" /><line stroke="#374151" stroke-width="2" x1="242" x2="258" y1="190" y2="190" /><line stroke="#374151" stroke-width="2" x1="250" x2="250" y1="182" y2="198" /><line stroke="#374151" stroke-width="2" x1="250" x2="250" y1="70" y2="190" /><title>CNOT: control=0, target=2</title></g><g class="gate-group"><rect fill="#10b981" height="24" rx="4" stroke="#ffffff" stroke-width="2" width="30" x="295" y="178" /><text fill="#ffffff" font-size="12" font-weight="bold" text-anchor="middle" x="310" y="195">RY</text><title>:ry gate on qubit 2, θ=0.007 (0.002π)</title></g><g class="gate-group"><circle cx="370" cy="70" fill="#374151" r="6" stroke="#ffffff" stroke-width="2" /><circle cx="370" cy="190" fill="none" r="12" stroke="#374151" stroke-width="2" /><line stroke="#374151" stroke-width="2" x1="362" x2="378" y1="190" y2="190" /><line stroke="#374151" stroke-width="2" x1="370" x2="370" y1="182" y2="198" /><line stroke="#374151" stroke-width="2" x1="370" x2="370" y1="70" y2="190" /><title>CNOT: control=0, target=2</title></g><g class="gate-group"><rect fill="#10b981" height="24" rx="4" stroke="#ffffff" stroke-width="2" width="30" x="415" y="58" /><text fill="#ffffff" font-size="12" font-weight="bold" text-anchor="middle" x="430" y="75">RY</text><title>:ry gate on qubit 0, θ=-0.007 (-0.002π)</title></g><g class="gate-group"><rect fill="#10b981" height="24" rx="4" stroke="#ffffff" stroke-width="2" width="30" x="415" y="118" /><text fill="#ffffff" font-size="12" font-weight="bold" text-anchor="middle" x="430" y="135">RY</text><title>:ry gate on qubit 1, θ=-0.044 (-0.014π)</title></g><g class="gate-group"><circle cx="490" cy="130" fill="#374151" r="6" stroke="#ffffff" stroke-width="2" /><circle cx="490" cy="250" fill="none" r="12" stroke="#374151" stroke-width="2" /><line stroke="#374151" stroke-width="2" x1="482" x2="498" y1="250" y2="250" /><line stroke="#374151" stroke-width="2" x1="490" x2="490" y1="242" y2="258" /><line stroke="#374151" stroke-width="2" x1="490" x2="490" y1="130" y2="250" /><title>CNOT: control=1, target=3</title></g><g class="gate-group"><rect fill="#10b981" height="24" rx="4" stroke="#ffffff" stroke-width="2" width="30" x="535" y="238" /><text fill="#ffffff" font-size="12" font-weight="bold" text-anchor="middle" x="550" y="255">RY</text><title>:ry gate on qubit 3, θ=-0.044 (-0.014π)</title></g><g class="gate-group"><circle cx="610" cy="130" fill="#374151" r="6" stroke="#ffffff" stroke-width="2" /><circle cx="610" cy="250" fill="none" r="12" stroke="#374151" stroke-width="2" /><line stroke="#374151" stroke-width="2" x1="602" x2="618" y1="250" y2="250" /><line stroke="#374151" stroke-width="2" x1="610" x2="610" y1="242" y2="258" /><line stroke="#374151" stroke-width="2" x1="610" x2="610" y1="130" y2="250" /><title>CNOT: control=1, target=3</title></g><g class="gate-group"><rect fill="#10b981" height="24" rx="4" stroke="#ffffff" stroke-width="2" width="30" x="655" y="118" /><text fill="#ffffff" font-size="12" font-weight="bold" text-anchor="middle" x="670" y="135">RY</text><title>:ry gate on qubit 1, θ=0.044 (0.014π)</title></g><g><rect fill="#fbbf24" height="24" rx="4" stroke="#f59e0b" stroke-width="2" width="30" x="795" y="58" /><text fill="#92400e" font-size="10" font-weight="bold" text-anchor="middle" x="810" y="75">M</text><title>Measure qubit 0</title></g><g><rect fill="#fbbf24" height="24" rx="4" stroke="#f59e0b" stroke-width="2" width="30" x="795" y="118" /><text fill="#92400e" font-size="10" font-weight="bold" text-anchor="middle" x="810" y="135">M</text><title>Measure qubit 1</title></g><g><rect fill="#fbbf24" height="24" rx="4" stroke="#f59e0b" stroke-width="2" width="30" x="795" y="178" /><text fill="#92400e" font-size="10" font-weight="bold" text-anchor="middle" x="810" y="195">M</text><title>Measure qubit 2</title></g><g><rect fill="#fbbf24" height="24" rx="4" stroke="#f59e0b" stroke-width="2" width="30" x="795" y="238" /><text fill="#92400e" font-size="10" font-weight="bold" text-anchor="middle" x="810" y="255">M</text><title>Measure qubit 3</title></g><g><text fill="#6b7280" font-size="12" x="30" y="310">Qubits: 4 | Gates: 12 | Depth: 10</text></g></svg>