<svg height="400" style="background-color: #f9fafb; border: 1px solid #e5e7eb; border-radius: 8px;" width="600" xmlns="http://www.w3.org/2000/svg"><defs><style>text { font-family: 'SF Pro Display', 'Segoe UI', system-ui, sans-serif; }
                   rect:hover { opacity: 1; stroke-width: 2; }</style></defs><text fill="#111827" font-size="16" font-weight="bold" text-anchor="middle" x="300" y="25">Quantum State Probability Distribution (4 qubits)</text><text fill="#374151" font-size="12" text-anchor="middle" transform="rotate(-90 20 200)" x="20" y="200">Probability (%)</text><text fill="#374151" font-size="12" text-anchor="middle" x="300" y="390">Basis States</text><g><line stroke="#9ca3af" stroke-width="1" x1="80" x2="80" y1="60" y2="280" /><g><line stroke="#9ca3af" stroke-width="1" x1="75" x2="80" y1="280.0" y2="280.0" /><text fill="#6b7280" font-size="10" text-anchor="end" x="70" y="283.0">0%</text></g><g><line stroke="#9ca3af" stroke-width="1" x1="75" x2="80" y1="236.0" y2="236.0" /><text fill="#6b7280" font-size="10" text-anchor="end" x="70" y="239.0">10%</text></g><g><line stroke="#9ca3af" stroke-width="1" x1="75" x2="80" y1="192.0" y2="192.0" /><text fill="#6b7280" font-size="10" text-anchor="end" x="70" y="195.0">20%</text></g><g><line stroke="#9ca3af" stroke-width="1" x1="75" x2="80" y1="148.00000000000003" y2="148.00000000000003" /><text fill="#6b7280" font-size="10" text-anchor="end" x="70" y="151.00000000000003">30%</text></g><g><line stroke="#9ca3af" stroke-width="1" x1="75" x2="80" y1="104.00000000000003" y2="104.00000000000003" /><text fill="#6b7280" font-size="10" text-anchor="end" x="70" y="107.00000000000003">40%</text></g><g><line stroke="#9ca3af" stroke-width="1" x1="75" x2="80" y1="60.00000000000006" y2="60.00000000000006" /><text fill="#6b7280" font-size="10" text-anchor="end" x="70" y="63.00000000000006">50%</text></g></g><line stroke="#9ca3af" stroke-width="1" x1="80" x2="560" y1="280" y2="280" /><g class="bar-group"><rect fill="#7c3aed" height="220.0" opacity="0.8" stroke="#ffffff" stroke-width="1" width="238" x="80" y="60.0"><title>|1100⟩: 50.0%</title></rect><text fill="#374151" font-size="12" text-anchor="end" transform="rotate(-45 200 300)" x="200" y="300">|1100⟩</text><text fill="#6b7280" font-size="10" text-anchor="middle" x="200" y="55.0">50.0%</text></g><g class="bar-group"><rect fill="#3b82f6" height="220.0" opacity="0.8" stroke="#ffffff" stroke-width="1" width="238" x="320" y="60.0"><title>|1101⟩: 50.0%</title></rect><text fill="#374151" font-size="12" text-anchor="end" transform="rotate(-45 440 300)" x="440" y="300">|1101⟩</text><text fill="#6b7280" font-size="10" text-anchor="middle" x="440" y="55.0">50.0%</text></g></svg>