<svg height="400" style="background-color: #f9fafb; border: 1px solid #e5e7eb; border-radius: 8px;" width="600" xmlns="http://www.w3.org/2000/svg"><defs><style>text { font-family: 'SF Pro Display', 'Segoe UI', system-ui, sans-serif; }
                     rect:hover { opacity: 1; stroke-width: 2; }</style></defs><text fill="#111827" font-size="16" font-weight="bold" text-anchor="middle" x="300" y="25">Measurement Results (10000 shots)</text><text fill="#374151" font-size="12" text-anchor="middle" transform="rotate(-90 20 200)" x="20" y="200">Measurement Counts</text><text fill="#374151" font-size="12" text-anchor="middle" x="300" y="390">Basis States</text><g><line stroke="#9ca3af" stroke-width="1" x1="80" x2="80" y1="60" y2="300" /><g><line stroke="#9ca3af" stroke-width="1" x1="75" x2="80" y1="300" y2="300" /><text fill="#6b7280" font-size="10" text-anchor="end" x="70" y="303">0</text></g><g><line stroke="#9ca3af" stroke-width="1" x1="75" x2="80" y1="252" y2="252" /><text fill="#6b7280" font-size="10" text-anchor="end" x="70" y="255">948</text></g><g><line stroke="#9ca3af" stroke-width="1" x1="75" x2="80" y1="204" y2="204" /><text fill="#6b7280" font-size="10" text-anchor="end" x="70" y="207">1896</text></g><g><line stroke="#9ca3af" stroke-width="1" x1="75" x2="80" y1="156" y2="156" /><text fill="#6b7280" font-size="10" text-anchor="end" x="70" y="159">2844</text></g><g><line stroke="#9ca3af" stroke-width="1" x1="75" x2="80" y1="108" y2="108" /><text fill="#6b7280" font-size="10" text-anchor="end" x="70" y="111">3792</text></g><g><line stroke="#9ca3af" stroke-width="1" x1="75" x2="80" y1="60" y2="60" /><text fill="#6b7280" font-size="10" text-anchor="end" x="70" y="63">4740</text></g></g><line stroke="#9ca3af" stroke-width="1" x1="80" x2="560" y1="300" y2="300" /><g class="bar-group"><rect fill="#7c3aed" height="240" opacity="0.8" stroke="#ffffff" stroke-width="1" width="58" x="80" y="60"><title>|000⟩: 4740 shots (47.4%)</title></rect><text fill="#374151" font-size="12" text-anchor="middle" x="110" y="320">|000⟩</text><text fill="#6b7280" font-size="10" text-anchor="middle" x="110" y="55">4740 shots</text></g><g class="bar-group"><rect fill="#3b82f6" height="230.27849" opacity="0.8" stroke="#ffffff" stroke-width="1" width="58" x="140" y="69.72152"><title>|111⟩: 4548 shots (45.5%)</title></rect><text fill="#374151" font-size="12" text-anchor="middle" x="170" y="320">|111⟩</text><text fill="#6b7280" font-size="10" text-anchor="middle" x="170" y="64.72152">4548 shots</text></g><g class="bar-group"><rect fill="#10b981" height="8.455696" opacity="0.8" stroke="#ffffff" stroke-width="1" width="58" x="200" y="291.5443"><title>|011⟩: 167 shots (1.7%)</title></rect><text fill="#374151" font-size="12" text-anchor="middle" x="230" y="320">|011⟩</text><text fill="#6b7280" font-size="10" text-anchor="middle" x="230" y="286.5443">167 shots</text></g><g class="bar-group"><rect fill="#f59e0b" height="7.594937" opacity="0.8" stroke="#ffffff" stroke-width="1" width="58" x="260" y="292.40506"><title>|110⟩: 150 shots (1.5%)</title></rect><text fill="#374151" font-size="12" text-anchor="middle" x="290" y="320">|110⟩</text><text fill="#6b7280" font-size="10" text-anchor="middle" x="290" y="287.40506">150 shots</text></g><g class="bar-group"><rect fill="#ef4444" height="7.392405" opacity="0.8" stroke="#ffffff" stroke-width="1" width="58" x="320" y="292.6076"><title>|101⟩: 146 shots (1.5%)</title></rect><text fill="#374151" font-size="12" text-anchor="middle" x="350" y="320">|101⟩</text><text fill="#6b7280" font-size="10" text-anchor="middle" x="350" y="287.6076">146 shots</text></g><g class="bar-group"><rect fill="#8b5cf6" height="5.012658" opacity="0.8" stroke="#ffffff" stroke-width="1" width="58" x="380" y="294.98734"><title>|010⟩: 99 shots (1.0%)</title></rect><text fill="#374151" font-size="12" text-anchor="middle" x="410" y="320">|010⟩</text><text fill="#6b7280" font-size="10" text-anchor="middle" x="410" y="289.98734">99 shots</text></g><g class="bar-group"><rect fill="#06b6d4" height="4.050633" opacity="0.8" stroke="#ffffff" stroke-width="1" width="58" x="440" y="295.94937"><title>|001⟩: 80 shots (0.8%)</title></rect><text fill="#374151" font-size="12" text-anchor="middle" x="470" y="320">|001⟩</text><text fill="#6b7280" font-size="10" text-anchor="middle" x="470" y="290.94937">80 shots</text></g><g class="bar-group"><rect fill="#84cc16" height="3.544304" opacity="0.8" stroke="#ffffff" stroke-width="1" width="58" x="500" y="296.4557"><title>|100⟩: 70 shots (0.7%)</title></rect><text fill="#374151" font-size="12" text-anchor="middle" x="530" y="320">|100⟩</text><text fill="#6b7280" font-size="10" text-anchor="middle" x="530" y="291.4557">70 shots</text></g></svg>