<svg height="400" style="background-color: #f9fafb; border: 1px solid #e5e7eb; border-radius: 8px;" width="600" xmlns="http://www.w3.org/2000/svg"><defs><style>text { font-family: 'SF Pro Display', 'Segoe UI', system-ui, sans-serif; }
                   rect:hover { opacity: 1; stroke-width: 2; }</style></defs><text fill="#111827" font-size="16" font-weight="bold" text-anchor="middle" x="300" y="25">Quantum State Probability Distribution (1 qubits)</text><text fill="#374151" font-size="12" text-anchor="middle" transform="rotate(-90 20 200)" x="20" y="200">Probability (%)</text><text fill="#374151" font-size="12" text-anchor="middle" x="300" y="390">Basis States</text><g><line stroke="#9ca3af" stroke-width="1" x1="80" x2="80" y1="60" y2="300" /><g><line stroke="#9ca3af" stroke-width="1" x1="75" x2="80" y1="300.0" y2="300.0" /><text fill="#6b7280" font-size="10" text-anchor="end" x="70" y="303.0">0%</text></g><g><line stroke="#9ca3af" stroke-width="1" x1="75" x2="80" y1="252.0" y2="252.0" /><text fill="#6b7280" font-size="10" text-anchor="end" x="70" y="255.0">10%</text></g><g><line stroke="#9ca3af" stroke-width="1" x1="75" x2="80" y1="203.99999999999997" y2="203.99999999999997" /><text fill="#6b7280" font-size="10" text-anchor="end" x="70" y="206.99999999999997">20%</text></g><g><line stroke="#9ca3af" stroke-width="1" x1="75" x2="80" y1="155.99999999999997" y2="155.99999999999997" /><text fill="#6b7280" font-size="10" text-anchor="end" x="70" y="158.99999999999997">30%</text></g><g><line stroke="#9ca3af" stroke-width="1" x1="75" x2="80" y1="107.99999999999994" y2="107.99999999999994" /><text fill="#6b7280" font-size="10" text-anchor="end" x="70" y="110.99999999999994">40%</text></g><g><line stroke="#9ca3af" stroke-width="1" x1="75" x2="80" y1="59.99999999999994" y2="59.99999999999994" /><text fill="#6b7280" font-size="10" text-anchor="end" x="70" y="62.99999999999994">50%</text></g></g><line stroke="#9ca3af" stroke-width="1" x1="80" x2="560" y1="300" y2="300" /><g class="bar-group"><rect fill="#7c3aed" height="240.0" opacity="0.8" stroke="#ffffff" stroke-width="1" width="238" x="80" y="60.0"><title>|0⟩: 50.0%</title></rect><text fill="#374151" font-size="12" text-anchor="middle" x="200" y="320">|0⟩</text><text fill="#6b7280" font-size="10" text-anchor="middle" x="200" y="55.0">50.0%</text></g><g class="bar-group"><rect fill="#3b82f6" height="240.0" opacity="0.8" stroke="#ffffff" stroke-width="1" width="238" x="320" y="60.0"><title>|1⟩: 50.0%</title></rect><text fill="#374151" font-size="12" text-anchor="middle" x="440" y="320">|1⟩</text><text fill="#6b7280" font-size="10" text-anchor="middle" x="440" y="55.0">50.0%</text></g></svg>