<svg height="400" style="background-color: #ffffff; border: 1px solid #e5e7eb; border-radius: 8px;" width="780" xmlns="http://www.w3.org/2000/svg"><defs><style>.gate-group:hover rect { opacity: 1; stroke-width: 3; }
                         .gate-group:hover circle { stroke-width: 3; }
                         text { font-family: 'SF Pro Display', 'Segoe UI', system-ui, sans-serif; }</style></defs><text fill="#111827" font-size="18" font-weight="bold" text-anchor="middle" x="390" y="35">Optimization Test Circuit</text><g><text fill="#374151" font-size="14" x="30" y="75">q0 |0⟩</text><line stroke="#9ca3af" stroke-width="2" x1="70" x2="730" y1="70" y2="70" /></g><g><text fill="#374151" font-size="14" x="30" y="135">q1 |0⟩</text><line stroke="#9ca3af" stroke-width="2" x1="70" x2="730" y1="130" y2="130" /></g><g><text fill="#374151" font-size="14" x="30" y="195">q2 |0⟩</text><line stroke="#9ca3af" stroke-width="2" x1="70" x2="730" y1="190" y2="190" /></g><g><text fill="#374151" font-size="14" x="30" y="255">q3 |0⟩</text><line stroke="#9ca3af" stroke-width="2" x1="70" x2="730" y1="250" y2="250" /></g><g><text fill="#374151" font-size="14" x="30" y="315">q4 |0⟩</text><line stroke="#9ca3af" stroke-width="2" x1="70" x2="730" y1="310" y2="310" /></g><g class="gate-group"><rect fill="#8b5cf6" height="24" rx="4" stroke="#ffffff" stroke-width="2" width="30" x="115" y="58" /><text fill="#ffffff" font-size="12" font-weight="bold" text-anchor="middle" x="130" y="75">H</text><title>:h gate on qubit 0</title></g><g class="gate-group"><rect fill="#f59e0b" height="24" rx="4" stroke="#ffffff" stroke-width="2" width="30" x="175" y="58" /><text fill="#ffffff" font-size="12" font-weight="bold" text-anchor="middle" x="190" y="75">S</text><title>:s gate on qubit 0</title></g><g class="gate-group"><rect fill="#8b5cf6" height="24" rx="4" stroke="#ffffff" stroke-width="2" width="30" x="115" y="118" /><text fill="#ffffff" font-size="12" font-weight="bold" text-anchor="middle" x="130" y="135">H</text><title>:h gate on qubit 1</title></g><g class="gate-group"><rect fill="#8b5cf6" height="24" rx="4" stroke="#ffffff" stroke-width="2" width="30" x="115" y="298" /><text fill="#ffffff" font-size="12" font-weight="bold" text-anchor="middle" x="130" y="315">H</text><title>:h gate on qubit 4</title></g><g class="gate-group"><rect fill="#06b6d4" height="24" rx="4" stroke="#ffffff" stroke-width="2" width="30" x="175" y="298" /><text fill="#ffffff" font-size="12" font-weight="bold" text-anchor="middle" x="190" y="315">T</text><title>:t gate on qubit 4</title></g><g class="gate-group"><rect fill="#ec4899" height="24" rx="4" stroke="#ffffff" stroke-width="2" width="30" x="175" y="118" /><text fill="#ffffff" font-size="12" font-weight="bold" text-anchor="middle" x="190" y="135">RX</text><title>:rx gate on qubit 1, θ=π/2</title></g><g class="gate-group"><rect fill="#ec4899" height="24" rx="4" stroke="#ffffff" stroke-width="2" width="30" x="235" y="118" /><text fill="#ffffff" font-size="12" font-weight="bold" text-anchor="middle" x="250" y="135">RX</text><title>:rx gate on qubit 1, θ=π</title></g><g class="gate-group"><rect fill="#ec4899" height="24" rx="4" stroke="#ffffff" stroke-width="2" width="30" x="295" y="118" /><text fill="#ffffff" font-size="12" font-weight="bold" text-anchor="middle" x="310" y="135">RX</text><title>:rx gate on qubit 1, θ=π/2</title></g><g class="gate-group"><rect fill="#8b5cf6" height="24" rx="4" stroke="#ffffff" stroke-width="2" width="30" x="355" y="118" /><text fill="#ffffff" font-size="12" font-weight="bold" text-anchor="middle" x="370" y="135">H</text><title>:h gate on qubit 1</title></g><g class="gate-group"><rect fill="#f59e0b" height="24" rx="4" stroke="#ffffff" stroke-width="2" width="30" x="235" y="58" /><text fill="#ffffff" font-size="12" font-weight="bold" text-anchor="middle" x="250" y="75">S†</text><title>:s-dag gate on qubit 0</title></g><g class="gate-group"><circle cx="430" cy="70" fill="#374151" r="6" stroke="#ffffff" stroke-width="2" /><circle cx="430" cy="130" fill="none" r="12" stroke="#374151" stroke-width="2" /><line stroke="#374151" stroke-width="2" x1="422" x2="438" y1="130" y2="130" /><line stroke="#374151" stroke-width="2" x1="430" x2="430" y1="122" y2="138" /><line stroke="#374151" stroke-width="2" x1="430" x2="430" y1="70" y2="130" /><title>CNOT: control=0, target=1</title></g><g class="gate-group"><rect fill="#06b6d4" height="24" rx="4" stroke="#ffffff" stroke-width="2" width="30" x="475" y="118" /><text fill="#ffffff" font-size="12" font-weight="bold" text-anchor="middle" x="490" y="135">T</text><title>:t gate on qubit 1</title></g><g class="gate-group"><circle cx="550" cy="130" fill="#374151" r="6" stroke="#ffffff" stroke-width="2" /><circle cx="550" cy="190" fill="none" r="12" stroke="#374151" stroke-width="2" /><line stroke="#374151" stroke-width="2" x1="542" x2="558" y1="190" y2="190" /><line stroke="#374151" stroke-width="2" x1="550" x2="550" y1="182" y2="198" /><line stroke="#374151" stroke-width="2" x1="550" x2="550" y1="130" y2="190" /><title>CNOT: control=1, target=2</title></g><g class="gate-group"><rect fill="#10b981" height="24" rx="4" stroke="#ffffff" stroke-width="2" width="30" x="595" y="178" /><text fill="#ffffff" font-size="12" font-weight="bold" text-anchor="middle" x="610" y="195">RY</text><title>:ry gate on qubit 2, θ=2π</title></g><g class="gate-group"><rect fill="#06b6d4" height="24" rx="4" stroke="#ffffff" stroke-width="2" width="30" x="235" y="298" /><text fill="#ffffff" font-size="12" font-weight="bold" text-anchor="middle" x="250" y="315">T†</text><title>:t-dag gate on qubit 4</title></g><g class="gate-group"><rect fill="#8b5cf6" height="24" rx="4" stroke="#ffffff" stroke-width="2" width="30" x="295" y="298" /><text fill="#ffffff" font-size="12" font-weight="bold" text-anchor="middle" x="310" y="315">H</text><title>:h gate on qubit 4</title></g><g><rect fill="#fbbf24" height="24" rx="4" stroke="#f59e0b" stroke-width="2" width="30" x="735" y="58" /><text fill="#92400e" font-size="10" font-weight="bold" text-anchor="middle" x="750" y="75">M</text><title>Measure qubit 0</title></g><g><rect fill="#fbbf24" height="24" rx="4" stroke="#f59e0b" stroke-width="2" width="30" x="735" y="118" /><text fill="#92400e" font-size="10" font-weight="bold" text-anchor="middle" x="750" y="135">M</text><title>Measure qubit 1</title></g><g><rect fill="#fbbf24" height="24" rx="4" stroke="#f59e0b" stroke-width="2" width="30" x="735" y="178" /><text fill="#92400e" font-size="10" font-weight="bold" text-anchor="middle" x="750" y="195">M</text><title>Measure qubit 2</title></g><g><rect fill="#fbbf24" height="24" rx="4" stroke="#f59e0b" stroke-width="2" width="30" x="735" y="238" /><text fill="#92400e" font-size="10" font-weight="bold" text-anchor="middle" x="750" y="255">M</text><title>Measure qubit 3</title></g><g><rect fill="#fbbf24" height="24" rx="4" stroke="#f59e0b" stroke-width="2" width="30" x="735" y="298" /><text fill="#92400e" font-size="10" font-weight="bold" text-anchor="middle" x="750" y="315">M</text><title>Measure qubit 4</title></g><g><text fill="#6b7280" font-size="12" x="30" y="370">Qubits: 5 | Gates: 16 | Depth: 9</text></g></svg>