<svg height="280" style="background-color: #ffffff; border: 1px solid #e5e7eb; border-radius: 8px;" width="1500" xmlns="http://www.w3.org/2000/svg"><defs><style>.gate-group:hover rect { opacity: 1; stroke-width: 3; }
                         .gate-group:hover circle { stroke-width: 3; }
                         text { font-family: 'SF Pro Display', 'Segoe UI', system-ui, sans-serif; }</style></defs><text fill="#111827" font-size="18" font-weight="bold" text-anchor="middle" x="750" y="35">Grover Search</text><g><text fill="#374151" font-size="14" x="30" y="75">q0 |0⟩</text><line stroke="#9ca3af" stroke-width="2" x1="70" x2="1450" y1="70" y2="70" /></g><g><text fill="#374151" font-size="14" x="30" y="135">q1 |0⟩</text><line stroke="#9ca3af" stroke-width="2" x1="70" x2="1450" y1="130" y2="130" /></g><g><text fill="#374151" font-size="14" x="30" y="195">q2 |0⟩</text><line stroke="#9ca3af" stroke-width="2" x1="70" x2="1450" y1="190" y2="190" /></g><g class="gate-group"><rect fill="#8b5cf6" height="24" rx="4" stroke="#ffffff" stroke-width="2" width="30" x="115" y="58" /><text fill="#ffffff" font-size="12" font-weight="bold" text-anchor="middle" x="130" y="75">H</text><title>:h gate on qubit 0</title></g><g class="gate-group"><rect fill="#8b5cf6" height="24" rx="4" stroke="#ffffff" stroke-width="2" width="30" x="115" y="118" /><text fill="#ffffff" font-size="12" font-weight="bold" text-anchor="middle" x="130" y="135">H</text><title>:h gate on qubit 1</title></g><g class="gate-group"><rect fill="#8b5cf6" height="24" rx="4" stroke="#ffffff" stroke-width="2" width="30" x="115" y="178" /><text fill="#ffffff" font-size="12" font-weight="bold" text-anchor="middle" x="130" y="195">H</text><title>:h gate on qubit 2</title></g><g class="gate-group"><rect fill="#ef4444" height="24" rx="4" stroke="#ffffff" stroke-width="2" width="30" x="175" y="118" /><text fill="#ffffff" font-size="12" font-weight="bold" text-anchor="middle" x="190" y="135">X</text><title>:x gate on qubit 1</title></g><g class="gate-group"><rect fill="#8b5cf6" height="24" rx="4" stroke="#ffffff" stroke-width="2" width="30" x="175" y="178" /><text fill="#ffffff" font-size="12" font-weight="bold" text-anchor="middle" x="190" y="195">H</text><title>:h gate on qubit 2</title></g><g class="gate-group"><circle cx="250" cy="70" fill="#374151" r="6" stroke="#ffffff" stroke-width="2" /><circle cx="250" cy="130" fill="#374151" r="6" stroke="#ffffff" stroke-width="2" /><circle cx="250" cy="190" fill="none" r="12" stroke="#374151" stroke-width="2" /><line stroke="#374151" stroke-width="2" x1="242" x2="258" y1="190" y2="190" /><line stroke="#374151" stroke-width="2" x1="250" x2="250" y1="182" y2="198" /><line stroke="#374151" stroke-width="2" x1="250" x2="250" y1="70" y2="190" /><line stroke="#374151" stroke-width="2" x1="250" x2="250" y1="130" y2="190" /><title>Toffoli (CCX): controls=[0, 1], target=2</title></g><g class="gate-group"><rect fill="#8b5cf6" height="24" rx="4" stroke="#ffffff" stroke-width="2" width="30" x="295" y="178" /><text fill="#ffffff" font-size="12" font-weight="bold" text-anchor="middle" x="310" y="195">H</text><title>:h gate on qubit 2</title></g><g class="gate-group"><rect fill="#ef4444" height="24" rx="4" stroke="#ffffff" stroke-width="2" width="30" x="295" y="118" /><text fill="#ffffff" font-size="12" font-weight="bold" text-anchor="middle" x="310" y="135">X</text><title>:x gate on qubit 1</title></g><g class="gate-group"><rect fill="#8b5cf6" height="24" rx="4" stroke="#ffffff" stroke-width="2" width="30" x="295" y="58" /><text fill="#ffffff" font-size="12" font-weight="bold" text-anchor="middle" x="310" y="75">H</text><title>:h gate on qubit 0</title></g><g class="gate-group"><rect fill="#8b5cf6" height="24" rx="4" stroke="#ffffff" stroke-width="2" width="30" x="355" y="118" /><text fill="#ffffff" font-size="12" font-weight="bold" text-anchor="middle" x="370" y="135">H</text><title>:h gate on qubit 1</title></g><g class="gate-group"><rect fill="#8b5cf6" height="24" rx="4" stroke="#ffffff" stroke-width="2" width="30" x="355" y="178" /><text fill="#ffffff" font-size="12" font-weight="bold" text-anchor="middle" x="370" y="195">H</text><title>:h gate on qubit 2</title></g><g class="gate-group"><rect fill="#ef4444" height="24" rx="4" stroke="#ffffff" stroke-width="2" width="30" x="355" y="58" /><text fill="#ffffff" font-size="12" font-weight="bold" text-anchor="middle" x="370" y="75">X</text><title>:x gate on qubit 0</title></g><g class="gate-group"><rect fill="#ef4444" height="24" rx="4" stroke="#ffffff" stroke-width="2" width="30" x="415" y="118" /><text fill="#ffffff" font-size="12" font-weight="bold" text-anchor="middle" x="430" y="135">X</text><title>:x gate on qubit 1</title></g><g class="gate-group"><rect fill="#ef4444" height="24" rx="4" stroke="#ffffff" stroke-width="2" width="30" x="415" y="178" /><text fill="#ffffff" font-size="12" font-weight="bold" text-anchor="middle" x="430" y="195">X</text><title>:x gate on qubit 2</title></g><g class="gate-group"><rect fill="#8b5cf6" height="24" rx="4" stroke="#ffffff" stroke-width="2" width="30" x="475" y="178" /><text fill="#ffffff" font-size="12" font-weight="bold" text-anchor="middle" x="490" y="195">H</text><title>:h gate on qubit 2</title></g><g class="gate-group"><circle cx="550" cy="70" fill="#374151" r="6" stroke="#ffffff" stroke-width="2" /><circle cx="550" cy="130" fill="#374151" r="6" stroke="#ffffff" stroke-width="2" /><circle cx="550" cy="190" fill="none" r="12" stroke="#374151" stroke-width="2" /><line stroke="#374151" stroke-width="2" x1="542" x2="558" y1="190" y2="190" /><line stroke="#374151" stroke-width="2" x1="550" x2="550" y1="182" y2="198" /><line stroke="#374151" stroke-width="2" x1="550" x2="550" y1="70" y2="190" /><line stroke="#374151" stroke-width="2" x1="550" x2="550" y1="130" y2="190" /><title>Toffoli (CCX): controls=[0, 1], target=2</title></g><g class="gate-group"><rect fill="#8b5cf6" height="24" rx="4" stroke="#ffffff" stroke-width="2" width="30" x="595" y="178" /><text fill="#ffffff" font-size="12" font-weight="bold" text-anchor="middle" x="610" y="195">H</text><title>:h gate on qubit 2</title></g><g class="gate-group"><rect fill="#ef4444" height="24" rx="4" stroke="#ffffff" stroke-width="2" width="30" x="595" y="58" /><text fill="#ffffff" font-size="12" font-weight="bold" text-anchor="middle" x="610" y="75">X</text><title>:x gate on qubit 0</title></g><g class="gate-group"><rect fill="#ef4444" height="24" rx="4" stroke="#ffffff" stroke-width="2" width="30" x="595" y="118" /><text fill="#ffffff" font-size="12" font-weight="bold" text-anchor="middle" x="610" y="135">X</text><title>:x gate on qubit 1</title></g><g class="gate-group"><rect fill="#ef4444" height="24" rx="4" stroke="#ffffff" stroke-width="2" width="30" x="655" y="178" /><text fill="#ffffff" font-size="12" font-weight="bold" text-anchor="middle" x="670" y="195">X</text><title>:x gate on qubit 2</title></g><g class="gate-group"><rect fill="#8b5cf6" height="24" rx="4" stroke="#ffffff" stroke-width="2" width="30" x="655" y="58" /><text fill="#ffffff" font-size="12" font-weight="bold" text-anchor="middle" x="670" y="75">H</text><title>:h gate on qubit 0</title></g><g class="gate-group"><rect fill="#8b5cf6" height="24" rx="4" stroke="#ffffff" stroke-width="2" width="30" x="655" y="118" /><text fill="#ffffff" font-size="12" font-weight="bold" text-anchor="middle" x="670" y="135">H</text><title>:h gate on qubit 1</title></g><g class="gate-group"><rect fill="#8b5cf6" height="24" rx="4" stroke="#ffffff" stroke-width="2" width="30" x="715" y="178" /><text fill="#ffffff" font-size="12" font-weight="bold" text-anchor="middle" x="730" y="195">H</text><title>:h gate on qubit 2</title></g><g class="gate-group"><rect fill="#ef4444" height="24" rx="4" stroke="#ffffff" stroke-width="2" width="30" x="715" y="118" /><text fill="#ffffff" font-size="12" font-weight="bold" text-anchor="middle" x="730" y="135">X</text><title>:x gate on qubit 1</title></g><g class="gate-group"><rect fill="#8b5cf6" height="24" rx="4" stroke="#ffffff" stroke-width="2" width="30" x="775" y="178" /><text fill="#ffffff" font-size="12" font-weight="bold" text-anchor="middle" x="790" y="195">H</text><title>:h gate on qubit 2</title></g><g class="gate-group"><circle cx="850" cy="70" fill="#374151" r="6" stroke="#ffffff" stroke-width="2" /><circle cx="850" cy="130" fill="#374151" r="6" stroke="#ffffff" stroke-width="2" /><circle cx="850" cy="190" fill="none" r="12" stroke="#374151" stroke-width="2" /><line stroke="#374151" stroke-width="2" x1="842" x2="858" y1="190" y2="190" /><line stroke="#374151" stroke-width="2" x1="850" x2="850" y1="182" y2="198" /><line stroke="#374151" stroke-width="2" x1="850" x2="850" y1="70" y2="190" /><line stroke="#374151" stroke-width="2" x1="850" x2="850" y1="130" y2="190" /><title>Toffoli (CCX): controls=[0, 1], target=2</title></g><g class="gate-group"><rect fill="#8b5cf6" height="24" rx="4" stroke="#ffffff" stroke-width="2" width="30" x="895" y="178" /><text fill="#ffffff" font-size="12" font-weight="bold" text-anchor="middle" x="910" y="195">H</text><title>:h gate on qubit 2</title></g><g class="gate-group"><rect fill="#ef4444" height="24" rx="4" stroke="#ffffff" stroke-width="2" width="30" x="895" y="118" /><text fill="#ffffff" font-size="12" font-weight="bold" text-anchor="middle" x="910" y="135">X</text><title>:x gate on qubit 1</title></g><g class="gate-group"><rect fill="#8b5cf6" height="24" rx="4" stroke="#ffffff" stroke-width="2" width="30" x="895" y="58" /><text fill="#ffffff" font-size="12" font-weight="bold" text-anchor="middle" x="910" y="75">H</text><title>:h gate on qubit 0</title></g><g class="gate-group"><rect fill="#8b5cf6" height="24" rx="4" stroke="#ffffff" stroke-width="2" width="30" x="955" y="118" /><text fill="#ffffff" font-size="12" font-weight="bold" text-anchor="middle" x="970" y="135">H</text><title>:h gate on qubit 1</title></g><g class="gate-group"><rect fill="#8b5cf6" height="24" rx="4" stroke="#ffffff" stroke-width="2" width="30" x="955" y="178" /><text fill="#ffffff" font-size="12" font-weight="bold" text-anchor="middle" x="970" y="195">H</text><title>:h gate on qubit 2</title></g><g class="gate-group"><rect fill="#ef4444" height="24" rx="4" stroke="#ffffff" stroke-width="2" width="30" x="955" y="58" /><text fill="#ffffff" font-size="12" font-weight="bold" text-anchor="middle" x="970" y="75">X</text><title>:x gate on qubit 0</title></g><g class="gate-group"><rect fill="#ef4444" height="24" rx="4" stroke="#ffffff" stroke-width="2" width="30" x="1015" y="118" /><text fill="#ffffff" font-size="12" font-weight="bold" text-anchor="middle" x="1030" y="135">X</text><title>:x gate on qubit 1</title></g><g class="gate-group"><rect fill="#ef4444" height="24" rx="4" stroke="#ffffff" stroke-width="2" width="30" x="1015" y="178" /><text fill="#ffffff" font-size="12" font-weight="bold" text-anchor="middle" x="1030" y="195">X</text><title>:x gate on qubit 2</title></g><g class="gate-group"><rect fill="#8b5cf6" height="24" rx="4" stroke="#ffffff" stroke-width="2" width="30" x="1075" y="178" /><text fill="#ffffff" font-size="12" font-weight="bold" text-anchor="middle" x="1090" y="195">H</text><title>:h gate on qubit 2</title></g><g class="gate-group"><circle cx="1150" cy="70" fill="#374151" r="6" stroke="#ffffff" stroke-width="2" /><circle cx="1150" cy="130" fill="#374151" r="6" stroke="#ffffff" stroke-width="2" /><circle cx="1150" cy="190" fill="none" r="12" stroke="#374151" stroke-width="2" /><line stroke="#374151" stroke-width="2" x1="1142" x2="1158" y1="190" y2="190" /><line stroke="#374151" stroke-width="2" x1="1150" x2="1150" y1="182" y2="198" /><line stroke="#374151" stroke-width="2" x1="1150" x2="1150" y1="70" y2="190" /><line stroke="#374151" stroke-width="2" x1="1150" x2="1150" y1="130" y2="190" /><title>Toffoli (CCX): controls=[0, 1], target=2</title></g><g class="gate-group"><rect fill="#8b5cf6" height="24" rx="4" stroke="#ffffff" stroke-width="2" width="30" x="1195" y="178" /><text fill="#ffffff" font-size="12" font-weight="bold" text-anchor="middle" x="1210" y="195">H</text><title>:h gate on qubit 2</title></g><g class="gate-group"><rect fill="#ef4444" height="24" rx="4" stroke="#ffffff" stroke-width="2" width="30" x="1195" y="58" /><text fill="#ffffff" font-size="12" font-weight="bold" text-anchor="middle" x="1210" y="75">X</text><title>:x gate on qubit 0</title></g><g class="gate-group"><rect fill="#ef4444" height="24" rx="4" stroke="#ffffff" stroke-width="2" width="30" x="1195" y="118" /><text fill="#ffffff" font-size="12" font-weight="bold" text-anchor="middle" x="1210" y="135">X</text><title>:x gate on qubit 1</title></g><g class="gate-group"><rect fill="#ef4444" height="24" rx="4" stroke="#ffffff" stroke-width="2" width="30" x="1255" y="178" /><text fill="#ffffff" font-size="12" font-weight="bold" text-anchor="middle" x="1270" y="195">X</text><title>:x gate on qubit 2</title></g><g class="gate-group"><rect fill="#8b5cf6" height="24" rx="4" stroke="#ffffff" stroke-width="2" width="30" x="1255" y="58" /><text fill="#ffffff" font-size="12" font-weight="bold" text-anchor="middle" x="1270" y="75">H</text><title>:h gate on qubit 0</title></g><g class="gate-group"><rect fill="#8b5cf6" height="24" rx="4" stroke="#ffffff" stroke-width="2" width="30" x="1255" y="118" /><text fill="#ffffff" font-size="12" font-weight="bold" text-anchor="middle" x="1270" y="135">H</text><title>:h gate on qubit 1</title></g><g class="gate-group"><rect fill="#8b5cf6" height="24" rx="4" stroke="#ffffff" stroke-width="2" width="30" x="1315" y="178" /><text fill="#ffffff" font-size="12" font-weight="bold" text-anchor="middle" x="1330" y="195">H</text><title>:h gate on qubit 2</title></g><g><rect fill="#fbbf24" height="24" rx="4" stroke="#f59e0b" stroke-width="2" width="30" x="1455" y="58" /><text fill="#92400e" font-size="10" font-weight="bold" text-anchor="middle" x="1470" y="75">M</text><title>Measure qubit 0</title></g><g><rect fill="#fbbf24" height="24" rx="4" stroke="#f59e0b" stroke-width="2" width="30" x="1455" y="118" /><text fill="#92400e" font-size="10" font-weight="bold" text-anchor="middle" x="1470" y="135">M</text><title>Measure qubit 1</title></g><g><rect fill="#fbbf24" height="24" rx="4" stroke="#f59e0b" stroke-width="2" width="30" x="1455" y="178" /><text fill="#92400e" font-size="10" font-weight="bold" text-anchor="middle" x="1470" y="195">M</text><title>Measure qubit 2</title></g><g><text fill="#6b7280" font-size="12" x="30" y="250">Qubits: 3 | Gates: 43 | Depth: 21</text><text fill="#6b7280" font-size="12" x="30" y="265">Search 8 items using 2 iterations</text></g></svg>