<svg height="460" style="background-color: #ffffff; border: 1px solid #e5e7eb; border-radius: 8px;" width="840" xmlns="http://www.w3.org/2000/svg"><defs><style>.gate-group:hover rect { opacity: 1; stroke-width: 3; }
                         .gate-group:hover circle { stroke-width: 3; }
                         text { font-family: 'SF Pro Display', 'Segoe UI', system-ui, sans-serif; }</style></defs><text fill="#111827" font-size="18" font-weight="bold" text-anchor="middle" x="420" y="35">Working HHL Algorithm</text><g><text fill="#374151" font-size="14" x="30" y="75">q0 |0⟩</text><line stroke="#9ca3af" stroke-width="2" x1="70" x2="790" y1="70" y2="70" /></g><g><text fill="#374151" font-size="14" x="30" y="135">q1 |0⟩</text><line stroke="#9ca3af" stroke-width="2" x1="70" x2="790" y1="130" y2="130" /></g><g><text fill="#374151" font-size="14" x="30" y="195">q2 |0⟩</text><line stroke="#9ca3af" stroke-width="2" x1="70" x2="790" y1="190" y2="190" /></g><g><text fill="#374151" font-size="14" x="30" y="255">q3 |0⟩</text><line stroke="#9ca3af" stroke-width="2" x1="70" x2="790" y1="250" y2="250" /></g><g><text fill="#374151" font-size="14" x="30" y="315">q4 |0⟩</text><line stroke="#9ca3af" stroke-width="2" x1="70" x2="790" y1="310" y2="310" /></g><g><text fill="#374151" font-size="14" x="30" y="375">q5 |0⟩</text><line stroke="#9ca3af" stroke-width="2" x1="70" x2="790" y1="370" y2="370" /></g><g class="gate-group"><rect fill="#10b981" height="24" rx="4" stroke="#ffffff" stroke-width="2" width="30" x="115" y="58" /><text fill="#ffffff" font-size="12" font-weight="bold" text-anchor="middle" x="130" y="75">RY</text><title>:ry gate on qubit 0, θ=1.24 (0.395π)</title></g><g class="gate-group"><rect fill="#8b5cf6" height="24" rx="4" stroke="#ffffff" stroke-width="2" width="30" x="115" y="118" /><text fill="#ffffff" font-size="12" font-weight="bold" text-anchor="middle" x="130" y="135">H</text><title>:h gate on qubit 1</title></g><g class="gate-group"><rect fill="#8b5cf6" height="24" rx="4" stroke="#ffffff" stroke-width="2" width="30" x="115" y="178" /><text fill="#ffffff" font-size="12" font-weight="bold" text-anchor="middle" x="130" y="195">H</text><title>:h gate on qubit 2</title></g><g class="gate-group"><rect fill="#8b5cf6" height="24" rx="4" stroke="#ffffff" stroke-width="2" width="30" x="115" y="238" /><text fill="#ffffff" font-size="12" font-weight="bold" text-anchor="middle" x="130" y="255">H</text><title>:h gate on qubit 3</title></g><g class="gate-group"><rect fill="#8b5cf6" height="24" rx="4" stroke="#ffffff" stroke-width="2" width="30" x="115" y="298" /><text fill="#ffffff" font-size="12" font-weight="bold" text-anchor="middle" x="130" y="315">H</text><title>:h gate on qubit 4</title></g><g class="gate-group"><circle cx="190" cy="130" fill="#374151" r="6" stroke="#ffffff" stroke-width="2" /><rect fill="#6366f1" height="24" rx="4" stroke="#ffffff" stroke-width="2" width="30" x="175" y="58" /><text fill="#ffffff" font-size="12" font-weight="bold" text-anchor="middle" x="190" y="75">CRZ</text><line stroke="#374151" stroke-width="2" x1="190" x2="190" y1="70" y2="130" /><title>:crz gate: control=1, target=0, φ=0.3 (0.095π)</title></g><g class="gate-group"><circle cx="250" cy="190" fill="#374151" r="6" stroke="#ffffff" stroke-width="2" /><rect fill="#6366f1" height="24" rx="4" stroke="#ffffff" stroke-width="2" width="30" x="235" y="58" /><text fill="#ffffff" font-size="12" font-weight="bold" text-anchor="middle" x="250" y="75">CRZ</text><line stroke="#374151" stroke-width="2" x1="250" x2="250" y1="70" y2="190" /><title>:crz gate: control=2, target=0, φ=0.6 (0.191π)</title></g><g class="gate-group"><circle cx="310" cy="250" fill="#374151" r="6" stroke="#ffffff" stroke-width="2" /><rect fill="#6366f1" height="24" rx="4" stroke="#ffffff" stroke-width="2" width="30" x="295" y="58" /><text fill="#ffffff" font-size="12" font-weight="bold" text-anchor="middle" x="310" y="75">CRZ</text><line stroke="#374151" stroke-width="2" x1="310" x2="310" y1="70" y2="250" /><title>:crz gate: control=3, target=0, φ=1.2 (0.382π)</title></g><g class="gate-group"><circle cx="370" cy="310" fill="#374151" r="6" stroke="#ffffff" stroke-width="2" /><rect fill="#6366f1" height="24" rx="4" stroke="#ffffff" stroke-width="2" width="30" x="355" y="58" /><text fill="#ffffff" font-size="12" font-weight="bold" text-anchor="middle" x="370" y="75">CRZ</text><line stroke="#374151" stroke-width="2" x1="370" x2="370" y1="70" y2="310" /><title>:crz gate: control=4, target=0, φ=2.4 (0.764π)</title></g><g class="gate-group"><rect fill="#10b981" height="24" rx="4" stroke="#ffffff" stroke-width="2" width="30" x="115" y="358" /><text fill="#ffffff" font-size="12" font-weight="bold" text-anchor="middle" x="130" y="375">RY</text><title>:ry gate on qubit 5, θ=0.393 (0.125π)</title></g><g class="gate-group"><circle cx="430" cy="130" fill="#374151" r="6" stroke="#ffffff" stroke-width="2" /><rect fill="#10b981" height="24" rx="4" stroke="#ffffff" stroke-width="2" width="30" x="415" y="358" /><text fill="#ffffff" font-size="12" font-weight="bold" text-anchor="middle" x="430" y="375">CRY</text><line stroke="#374151" stroke-width="2" x1="430" x2="430" y1="130" y2="370" /><title>:cry gate: control=1, target=5, θ=π/2</title></g><g class="gate-group"><circle cx="490" cy="190" fill="#374151" r="6" stroke="#ffffff" stroke-width="2" /><rect fill="#10b981" height="24" rx="4" stroke="#ffffff" stroke-width="2" width="30" x="475" y="358" /><text fill="#ffffff" font-size="12" font-weight="bold" text-anchor="middle" x="490" y="375">CRY</text><line stroke="#374151" stroke-width="2" x1="490" x2="490" y1="190" y2="370" /><title>:cry gate: control=2, target=5, θ=π/3</title></g><g class="gate-group"><circle cx="550" cy="250" fill="#374151" r="6" stroke="#ffffff" stroke-width="2" /><rect fill="#10b981" height="24" rx="4" stroke="#ffffff" stroke-width="2" width="30" x="535" y="358" /><text fill="#ffffff" font-size="12" font-weight="bold" text-anchor="middle" x="550" y="375">CRY</text><line stroke="#374151" stroke-width="2" x1="550" x2="550" y1="250" y2="370" /><title>:cry gate: control=3, target=5, θ=π/4</title></g><g class="gate-group"><circle cx="610" cy="310" fill="#374151" r="6" stroke="#ffffff" stroke-width="2" /><rect fill="#10b981" height="24" rx="4" stroke="#ffffff" stroke-width="2" width="30" x="595" y="358" /><text fill="#ffffff" font-size="12" font-weight="bold" text-anchor="middle" x="610" y="375">CRY</text><line stroke="#374151" stroke-width="2" x1="610" x2="610" y1="310" y2="370" /><title>:cry gate: control=4, target=5, θ=0.628 (0.2π)</title></g><g class="gate-group"><rect fill="#8b5cf6" height="24" rx="4" stroke="#ffffff" stroke-width="2" width="30" x="655" y="298" /><text fill="#ffffff" font-size="12" font-weight="bold" text-anchor="middle" x="670" y="315">H</text><title>:h gate on qubit 4</title></g><g class="gate-group"><rect fill="#8b5cf6" height="24" rx="4" stroke="#ffffff" stroke-width="2" width="30" x="595" y="238" /><text fill="#ffffff" font-size="12" font-weight="bold" text-anchor="middle" x="610" y="255">H</text><title>:h gate on qubit 3</title></g><g class="gate-group"><rect fill="#8b5cf6" height="24" rx="4" stroke="#ffffff" stroke-width="2" width="30" x="535" y="178" /><text fill="#ffffff" font-size="12" font-weight="bold" text-anchor="middle" x="550" y="195">H</text><title>:h gate on qubit 2</title></g><g class="gate-group"><rect fill="#8b5cf6" height="24" rx="4" stroke="#ffffff" stroke-width="2" width="30" x="475" y="118" /><text fill="#ffffff" font-size="12" font-weight="bold" text-anchor="middle" x="490" y="135">H</text><title>:h gate on qubit 1</title></g><g><rect fill="#fbbf24" height="24" rx="4" stroke="#f59e0b" stroke-width="2" width="30" x="795" y="58" /><text fill="#92400e" font-size="10" font-weight="bold" text-anchor="middle" x="810" y="75">M</text><title>Measure qubit 0</title></g><g><rect fill="#fbbf24" height="24" rx="4" stroke="#f59e0b" stroke-width="2" width="30" x="795" y="118" /><text fill="#92400e" font-size="10" font-weight="bold" text-anchor="middle" x="810" y="135">M</text><title>Measure qubit 1</title></g><g><rect fill="#fbbf24" height="24" rx="4" stroke="#f59e0b" stroke-width="2" width="30" x="795" y="178" /><text fill="#92400e" font-size="10" font-weight="bold" text-anchor="middle" x="810" y="195">M</text><title>Measure qubit 2</title></g><g><rect fill="#fbbf24" height="24" rx="4" stroke="#f59e0b" stroke-width="2" width="30" x="795" y="238" /><text fill="#92400e" font-size="10" font-weight="bold" text-anchor="middle" x="810" y="255">M</text><title>Measure qubit 3</title></g><g><rect fill="#fbbf24" height="24" rx="4" stroke="#f59e0b" stroke-width="2" width="30" x="795" y="298" /><text fill="#92400e" font-size="10" font-weight="bold" text-anchor="middle" x="810" y="315">M</text><title>Measure qubit 4</title></g><g><rect fill="#fbbf24" height="24" rx="4" stroke="#f59e0b" stroke-width="2" width="30" x="795" y="358" /><text fill="#92400e" font-size="10" font-weight="bold" text-anchor="middle" x="810" y="375">M</text><title>Measure qubit 5</title></g><g><text fill="#6b7280" font-size="12" x="30" y="430">Qubits: 6 | Gates: 18 | Depth: 10</text><text fill="#6b7280" font-size="12" x="30" y="445">Functional HHL for 2×2 matrix</text></g></svg>