<svg height="460" style="background-color: #ffffff; border: 1px solid #e5e7eb; border-radius: 8px;" width="600" xmlns="http://www.w3.org/2000/svg"><defs><style>.gate-group:hover rect { opacity: 1; stroke-width: 3; }
                         .gate-group:hover circle { stroke-width: 3; }
                         text { font-family: 'SF Pro Display', 'Segoe UI', system-ui, sans-serif; }</style></defs><text fill="#111827" font-size="18" font-weight="bold" text-anchor="middle" x="300" y="35">Simon's Algorithm</text><g><text fill="#374151" font-size="14" x="30" y="75">q0 |0⟩</text><line stroke="#9ca3af" stroke-width="2" x1="70" x2="550" y1="70" y2="70" /></g><g><text fill="#374151" font-size="14" x="30" y="135">q1 |0⟩</text><line stroke="#9ca3af" stroke-width="2" x1="70" x2="550" y1="130" y2="130" /></g><g><text fill="#374151" font-size="14" x="30" y="195">q2 |0⟩</text><line stroke="#9ca3af" stroke-width="2" x1="70" x2="550" y1="190" y2="190" /></g><g><text fill="#374151" font-size="14" x="30" y="255">q3 |0⟩</text><line stroke="#9ca3af" stroke-width="2" x1="70" x2="550" y1="250" y2="250" /></g><g><text fill="#374151" font-size="14" x="30" y="315">q4 |0⟩</text><line stroke="#9ca3af" stroke-width="2" x1="70" x2="550" y1="310" y2="310" /></g><g><text fill="#374151" font-size="14" x="30" y="375">q5 |0⟩</text><line stroke="#9ca3af" stroke-width="2" x1="70" x2="550" y1="370" y2="370" /></g><g class="gate-group"><rect fill="#8b5cf6" height="24" rx="4" stroke="#ffffff" stroke-width="2" width="30" x="115" y="58" /><text fill="#ffffff" font-size="12" font-weight="bold" text-anchor="middle" x="130" y="75">H</text><title>:h gate on qubit 0</title></g><g class="gate-group"><rect fill="#8b5cf6" height="24" rx="4" stroke="#ffffff" stroke-width="2" width="30" x="115" y="118" /><text fill="#ffffff" font-size="12" font-weight="bold" text-anchor="middle" x="130" y="135">H</text><title>:h gate on qubit 1</title></g><g class="gate-group"><rect fill="#8b5cf6" height="24" rx="4" stroke="#ffffff" stroke-width="2" width="30" x="115" y="178" /><text fill="#ffffff" font-size="12" font-weight="bold" text-anchor="middle" x="130" y="195">H</text><title>:h gate on qubit 2</title></g><g class="gate-group"><circle cx="190" cy="130" fill="#374151" r="6" stroke="#ffffff" stroke-width="2" /><circle cx="190" cy="250" fill="none" r="12" stroke="#374151" stroke-width="2" /><line stroke="#374151" stroke-width="2" x1="182" x2="198" y1="250" y2="250" /><line stroke="#374151" stroke-width="2" x1="190" x2="190" y1="242" y2="258" /><line stroke="#374151" stroke-width="2" x1="190" x2="190" y1="130" y2="250" /><title>CNOT: control=1, target=3</title></g><g class="gate-group"><circle cx="250" cy="70" fill="#374151" r="6" stroke="#ffffff" stroke-width="2" /><circle cx="250" cy="310" fill="none" r="12" stroke="#374151" stroke-width="2" /><line stroke="#374151" stroke-width="2" x1="242" x2="258" y1="310" y2="310" /><line stroke="#374151" stroke-width="2" x1="250" x2="250" y1="302" y2="318" /><line stroke="#374151" stroke-width="2" x1="250" x2="250" y1="70" y2="310" /><title>CNOT: control=0, target=4</title></g><g class="gate-group"><circle cx="310" cy="190" fill="#374151" r="6" stroke="#ffffff" stroke-width="2" /><circle cx="310" cy="310" fill="none" r="12" stroke="#374151" stroke-width="2" /><line stroke="#374151" stroke-width="2" x1="302" x2="318" y1="310" y2="310" /><line stroke="#374151" stroke-width="2" x1="310" x2="310" y1="302" y2="318" /><line stroke="#374151" stroke-width="2" x1="310" x2="310" y1="190" y2="310" /><title>CNOT: control=2, target=4</title></g><g class="gate-group"><rect fill="#8b5cf6" height="24" rx="4" stroke="#ffffff" stroke-width="2" width="30" x="295" y="58" /><text fill="#ffffff" font-size="12" font-weight="bold" text-anchor="middle" x="310" y="75">H</text><title>:h gate on qubit 0</title></g><g class="gate-group"><rect fill="#8b5cf6" height="24" rx="4" stroke="#ffffff" stroke-width="2" width="30" x="295" y="118" /><text fill="#ffffff" font-size="12" font-weight="bold" text-anchor="middle" x="310" y="135">H</text><title>:h gate on qubit 1</title></g><g class="gate-group"><rect fill="#8b5cf6" height="24" rx="4" stroke="#ffffff" stroke-width="2" width="30" x="355" y="178" /><text fill="#ffffff" font-size="12" font-weight="bold" text-anchor="middle" x="370" y="195">H</text><title>:h gate on qubit 2</title></g><g><rect fill="#fbbf24" height="24" rx="4" stroke="#f59e0b" stroke-width="2" width="30" x="555" y="58" /><text fill="#92400e" font-size="10" font-weight="bold" text-anchor="middle" x="570" y="75">M</text><title>Measure qubit 0</title></g><g><rect fill="#fbbf24" height="24" rx="4" stroke="#f59e0b" stroke-width="2" width="30" x="555" y="118" /><text fill="#92400e" font-size="10" font-weight="bold" text-anchor="middle" x="570" y="135">M</text><title>Measure qubit 1</title></g><g><rect fill="#fbbf24" height="24" rx="4" stroke="#f59e0b" stroke-width="2" width="30" x="555" y="178" /><text fill="#92400e" font-size="10" font-weight="bold" text-anchor="middle" x="570" y="195">M</text><title>Measure qubit 2</title></g><g><rect fill="#fbbf24" height="24" rx="4" stroke="#f59e0b" stroke-width="2" width="30" x="555" y="238" /><text fill="#92400e" font-size="10" font-weight="bold" text-anchor="middle" x="570" y="255">M</text><title>Measure qubit 3</title></g><g><rect fill="#fbbf24" height="24" rx="4" stroke="#f59e0b" stroke-width="2" width="30" x="555" y="298" /><text fill="#92400e" font-size="10" font-weight="bold" text-anchor="middle" x="570" y="315">M</text><title>Measure qubit 4</title></g><g><rect fill="#fbbf24" height="24" rx="4" stroke="#f59e0b" stroke-width="2" width="30" x="555" y="358" /><text fill="#92400e" font-size="10" font-weight="bold" text-anchor="middle" x="570" y="375">M</text><title>Measure qubit 5</title></g><g><text fill="#6b7280" font-size="12" x="30" y="430">Qubits: 6 | Gates: 9 | Depth: 6</text><text fill="#6b7280" font-size="12" x="30" y="445">Find hidden period of length 3</text></g></svg>