<svg height="400" style="background-color: #f9fafb; border: 1px solid #e5e7eb; border-radius: 8px;" width="600" xmlns="http://www.w3.org/2000/svg"><defs><style>text { font-family: 'SF Pro Display', 'Segoe UI', system-ui, sans-serif; }
                   rect:hover { opacity: 1; stroke-width: 2; }</style></defs><text fill="#111827" font-size="16" font-weight="bold" text-anchor="middle" x="300" y="25">Quantum State Probability Distribution (6 qubits)</text><text fill="#374151" font-size="12" text-anchor="middle" transform="rotate(-90 20 200)" x="20" y="200">Probability (%)</text><text fill="#374151" font-size="12" text-anchor="middle" x="300" y="390">Basis States</text><g><line stroke="#9ca3af" stroke-width="1" x1="80" x2="80" y1="60" y2="280" /><g><line stroke="#9ca3af" stroke-width="1" x1="75" x2="80" y1="280.0" y2="280.0" /><text fill="#6b7280" font-size="10" text-anchor="end" x="70" y="283.0">0%</text></g><g><line stroke="#9ca3af" stroke-width="1" x1="75" x2="80" y1="152.14616218290274" y2="152.14616218290274" /><text fill="#6b7280" font-size="10" text-anchor="end" x="70" y="155.14616218290274">10%</text></g></g><line stroke="#9ca3af" stroke-width="1" x1="80" x2="560" y1="280" y2="280" /><g class="bar-group"><rect fill="#7c3aed" height="220.0" opacity="0.8" stroke="#ffffff" stroke-width="1" width="28" x="80" y="60.0"><title>|000001⟩: 17.2%</title></rect><text fill="#374151" font-size="12" text-anchor="end" transform="rotate(-45 95 300)" x="95" y="300">|000001⟩</text><text fill="#6b7280" font-size="10" text-anchor="middle" x="95" y="55.0">17.2%</text></g><g class="bar-group"><rect fill="#3b82f6" height="200.34857326614136" opacity="0.8" stroke="#ffffff" stroke-width="1" width="28" x="110" y="79.65142673385864"><title>|000000⟩: 15.7%</title></rect><text fill="#374151" font-size="12" text-anchor="end" transform="rotate(-45 125 300)" x="125" y="300">|000000⟩</text><text fill="#6b7280" font-size="10" text-anchor="middle" x="125" y="74.65142673385864">15.7%</text></g><g class="bar-group"><rect fill="#10b981" height="112.2448979591836" opacity="0.8" stroke="#ffffff" stroke-width="1" width="28" x="140" y="167.75510204081638"><title>|100001⟩: 8.8%</title></rect><text fill="#374151" font-size="12" text-anchor="end" transform="rotate(-45 155 300)" x="155" y="300">|100001⟩</text><text fill="#6b7280" font-size="10" text-anchor="middle" x="155" y="162.75510204081638">8.8%</text></g><g class="bar-group"><rect fill="#f59e0b" height="102.21865982966388" opacity="0.8" stroke="#ffffff" stroke-width="1" width="28" x="170" y="177.78134017033614"><title>|100000⟩: 8.0%</title></rect><text fill="#374151" font-size="12" text-anchor="end" transform="rotate(-45 185 300)" x="185" y="300">|100000⟩</text><text fill="#6b7280" font-size="10" text-anchor="middle" x="185" y="172.78134017033614">8.0%</text></g><g class="bar-group"><rect fill="#ef4444" height="90.3295038607366" opacity="0.8" stroke="#ffffff" stroke-width="1" width="28" x="200" y="189.6704961392634"><title>|000011⟩: 7.1%</title></rect><text fill="#374151" font-size="12" text-anchor="end" transform="rotate(-45 215 300)" x="215" y="300">|000011⟩</text><text fill="#6b7280" font-size="10" text-anchor="middle" x="215" y="184.6704961392634">7.1%</text></g><g class="bar-group"><rect fill="#8b5cf6" height="81.52133811772941" opacity="0.8" stroke="#ffffff" stroke-width="1" width="28" x="230" y="198.4786618822706"><title>|000010⟩: 6.4%</title></rect><text fill="#374151" font-size="12" text-anchor="end" transform="rotate(-45 245 300)" x="245" y="300">|000010⟩</text><text fill="#6b7280" font-size="10" text-anchor="middle" x="245" y="193.4786618822706">6.4%</text></g><g class="bar-group"><rect fill="#06b6d4" height="46.08648156160028" opacity="0.8" stroke="#ffffff" stroke-width="1" width="28" x="260" y="233.9135184383997"><title>|100011⟩: 3.6%</title></rect><text fill="#374151" font-size="12" text-anchor="end" transform="rotate(-45 275 300)" x="275" y="300">|100011⟩</text><text fill="#6b7280" font-size="10" text-anchor="middle" x="275" y="228.9135184383997">3.6%</text></g><g class="bar-group"><rect fill="#84cc16" height="41.5925194478211" opacity="0.8" stroke="#ffffff" stroke-width="1" width="28" x="290" y="238.4074805521789"><title>|100010⟩: 3.3%</title></rect><text fill="#374151" font-size="12" text-anchor="end" transform="rotate(-45 305 300)" x="305" y="300">|100010⟩</text><text fill="#6b7280" font-size="10" text-anchor="middle" x="305" y="233.4074805521789">3.3%</text></g><g class="bar-group"><rect fill="#7c3aed" height="32.860814799871534" opacity="0.8" stroke="#ffffff" stroke-width="1" width="28" x="320" y="247.13918520012845"><title>|010000⟩: 2.6%</title></rect><text fill="#374151" font-size="12" text-anchor="end" transform="rotate(-45 335 300)" x="335" y="300">|010000⟩</text><text fill="#6b7280" font-size="10" text-anchor="middle" x="335" y="242.13918520012845">2.6%</text></g><g class="bar-group"><rect fill="#3b82f6" height="29.596956343708698" opacity="0.8" stroke="#ffffff" stroke-width="1" width="28" x="350" y="250.4030436562913"><title>|010001⟩: 2.3%</title></rect><text fill="#374151" font-size="12" text-anchor="end" transform="rotate(-45 365 300)" x="365" y="300">|010001⟩</text><text fill="#6b7280" font-size="10" text-anchor="middle" x="365" y="245.4030436562913">2.3%</text></g><g class="bar-group"><rect fill="#10b981" height="19.168952923051314" opacity="0.8" stroke="#ffffff" stroke-width="1" width="28" x="380" y="260.8310470769487"><title>|000101⟩: 1.5%</title></rect><text fill="#374151" font-size="12" text-anchor="end" transform="rotate(-45 395 300)" x="395" y="300">|000101⟩</text><text fill="#6b7280" font-size="10" text-anchor="middle" x="395" y="255.83104707694872">1.5%</text></g><g class="bar-group"><rect fill="#f59e0b" height="18.061868651759344" opacity="0.8" stroke="#ffffff" stroke-width="1" width="28" x="410" y="261.93813134824063"><title>|000100⟩: 1.4%</title></rect><text fill="#374151" font-size="12" text-anchor="end" transform="rotate(-45 425 300)" x="425" y="300">|000100⟩</text><text fill="#6b7280" font-size="10" text-anchor="middle" x="425" y="256.93813134824063">1.4%</text></g><g class="bar-group"><rect fill="#ef4444" height="17.613832036200684" opacity="0.8" stroke="#ffffff" stroke-width="1" width="28" x="440" y="262.3861679637993"><title>|010010⟩: 1.4%</title></rect><text fill="#374151" font-size="12" text-anchor="end" transform="rotate(-45 455 300)" x="455" y="300">|010010⟩</text><text fill="#6b7280" font-size="10" text-anchor="middle" x="455" y="257.3861679637993">1.4%</text></g><g class="bar-group"><rect fill="#8b5cf6" height="16.765721836669154" opacity="0.8" stroke="#ffffff" stroke-width="1" width="28" x="470" y="263.2342781633308"><title>|110000⟩: 1.3%</title></rect><text fill="#374151" font-size="12" text-anchor="end" transform="rotate(-45 485 300)" x="485" y="300">|110000⟩</text><text fill="#6b7280" font-size="10" text-anchor="middle" x="485" y="258.2342781633308">1.3%</text></g><g class="bar-group"><rect fill="#06b6d4" height="16.150904858803187" opacity="0.8" stroke="#ffffff" stroke-width="1" width="28" x="500" y="263.8490951411968"><title>|010011⟩: 1.3%</title></rect><text fill="#374151" font-size="12" text-anchor="end" transform="rotate(-45 515 300)" x="515" y="300">|010011⟩</text><text fill="#6b7280" font-size="10" text-anchor="middle" x="515" y="258.8490951411968">1.3%</text></g><g class="bar-group"><rect fill="#84cc16" height="15.76811729454231" opacity="0.8" stroke="#ffffff" stroke-width="1" width="28" x="530" y="264.2318827054577"><title>|000111⟩: 1.2%</title></rect><text fill="#374151" font-size="12" text-anchor="end" transform="rotate(-45 545 300)" x="545" y="300">|000111⟩</text><text fill="#6b7280" font-size="10" text-anchor="middle" x="545" y="259.2318827054577">1.2%</text></g></svg>