<svg height="280" style="background-color: #ffffff; border: 1px solid #e5e7eb; border-radius: 8px;" width="1500" xmlns="http://www.w3.org/2000/svg"><defs><style>.gate-group:hover rect { opacity: 1; stroke-width: 3; }
                         .gate-group:hover circle { stroke-width: 3; }
                         text { font-family: 'SF Pro Display', 'Segoe UI', system-ui, sans-serif; }</style></defs><text fill="#111827" font-size="18" font-weight="bold" text-anchor="middle" x="750" y="35">QAOA Ansatz + Hamiltonian Evo + Hamiltonian Evo + Hamiltonian Evo + Hamiltonian Evo</text><g><text fill="#374151" font-size="14" x="30" y="75">q0 |0⟩</text><line stroke="#9ca3af" stroke-width="2" x1="70" x2="1450" y1="70" y2="70" /></g><g><text fill="#374151" font-size="14" x="30" y="135">q1 |0⟩</text><line stroke="#9ca3af" stroke-width="2" x1="70" x2="1450" y1="130" y2="130" /></g><g><text fill="#374151" font-size="14" x="30" y="195">q2 |0⟩</text><line stroke="#9ca3af" stroke-width="2" x1="70" x2="1450" y1="190" y2="190" /></g><g class="gate-group"><rect fill="#8b5cf6" height="24" rx="4" stroke="#ffffff" stroke-width="2" width="30" x="115" y="58" /><text fill="#ffffff" font-size="12" font-weight="bold" text-anchor="middle" x="130" y="75">H</text><title>:h gate on qubit 0</title></g><g class="gate-group"><rect fill="#8b5cf6" height="24" rx="4" stroke="#ffffff" stroke-width="2" width="30" x="115" y="118" /><text fill="#ffffff" font-size="12" font-weight="bold" text-anchor="middle" x="130" y="135">H</text><title>:h gate on qubit 1</title></g><g class="gate-group"><rect fill="#8b5cf6" height="24" rx="4" stroke="#ffffff" stroke-width="2" width="30" x="115" y="178" /><text fill="#ffffff" font-size="12" font-weight="bold" text-anchor="middle" x="130" y="195">H</text><title>:h gate on qubit 2</title></g><g class="gate-group"><circle cx="190" cy="70" fill="#374151" r="6" stroke="#ffffff" stroke-width="2" /><circle cx="190" cy="130" fill="none" r="12" stroke="#374151" stroke-width="2" /><line stroke="#374151" stroke-width="2" x1="182" x2="198" y1="130" y2="130" /><line stroke="#374151" stroke-width="2" x1="190" x2="190" y1="122" y2="138" /><line stroke="#374151" stroke-width="2" x1="190" x2="190" y1="70" y2="130" /><title>CNOT: control=0, target=1</title></g><g class="gate-group"><rect fill="#6366f1" height="24" rx="4" stroke="#ffffff" stroke-width="2" width="30" x="235" y="118" /><text fill="#ffffff" font-size="12" font-weight="bold" text-anchor="middle" x="250" y="135">RZ</text><title>:rz gate on qubit 1, φ=-0.931 (-0.296π)</title></g><g class="gate-group"><circle cx="310" cy="70" fill="#374151" r="6" stroke="#ffffff" stroke-width="2" /><circle cx="310" cy="130" fill="none" r="12" stroke="#374151" stroke-width="2" /><line stroke="#374151" stroke-width="2" x1="302" x2="318" y1="130" y2="130" /><line stroke="#374151" stroke-width="2" x1="310" x2="310" y1="122" y2="138" /><line stroke="#374151" stroke-width="2" x1="310" x2="310" y1="70" y2="130" /><title>CNOT: control=0, target=1</title></g><g class="gate-group"><circle cx="370" cy="130" fill="#374151" r="6" stroke="#ffffff" stroke-width="2" /><circle cx="370" cy="190" fill="none" r="12" stroke="#374151" stroke-width="2" /><line stroke="#374151" stroke-width="2" x1="362" x2="378" y1="190" y2="190" /><line stroke="#374151" stroke-width="2" x1="370" x2="370" y1="182" y2="198" /><line stroke="#374151" stroke-width="2" x1="370" x2="370" y1="130" y2="190" /><title>CNOT: control=1, target=2</title></g><g class="gate-group"><rect fill="#6366f1" height="24" rx="4" stroke="#ffffff" stroke-width="2" width="30" x="415" y="178" /><text fill="#ffffff" font-size="12" font-weight="bold" text-anchor="middle" x="430" y="195">RZ</text><title>:rz gate on qubit 2, φ=-0.931 (-0.296π)</title></g><g class="gate-group"><circle cx="490" cy="130" fill="#374151" r="6" stroke="#ffffff" stroke-width="2" /><circle cx="490" cy="190" fill="none" r="12" stroke="#374151" stroke-width="2" /><line stroke="#374151" stroke-width="2" x1="482" x2="498" y1="190" y2="190" /><line stroke="#374151" stroke-width="2" x1="490" x2="490" y1="182" y2="198" /><line stroke="#374151" stroke-width="2" x1="490" x2="490" y1="130" y2="190" /><title>CNOT: control=1, target=2</title></g><g class="gate-group"><circle cx="550" cy="70" fill="#374151" r="6" stroke="#ffffff" stroke-width="2" /><circle cx="550" cy="190" fill="none" r="12" stroke="#374151" stroke-width="2" /><line stroke="#374151" stroke-width="2" x1="542" x2="558" y1="190" y2="190" /><line stroke="#374151" stroke-width="2" x1="550" x2="550" y1="182" y2="198" /><line stroke="#374151" stroke-width="2" x1="550" x2="550" y1="70" y2="190" /><title>CNOT: control=0, target=2</title></g><g class="gate-group"><rect fill="#6366f1" height="24" rx="4" stroke="#ffffff" stroke-width="2" width="30" x="595" y="178" /><text fill="#ffffff" font-size="12" font-weight="bold" text-anchor="middle" x="610" y="195">RZ</text><title>:rz gate on qubit 2, φ=-0.931 (-0.296π)</title></g><g class="gate-group"><circle cx="670" cy="70" fill="#374151" r="6" stroke="#ffffff" stroke-width="2" /><circle cx="670" cy="190" fill="none" r="12" stroke="#374151" stroke-width="2" /><line stroke="#374151" stroke-width="2" x1="662" x2="678" y1="190" y2="190" /><line stroke="#374151" stroke-width="2" x1="670" x2="670" y1="182" y2="198" /><line stroke="#374151" stroke-width="2" x1="670" x2="670" y1="70" y2="190" /><title>CNOT: control=0, target=2</title></g><g class="gate-group"><rect fill="#ec4899" height="24" rx="4" stroke="#ffffff" stroke-width="2" width="30" x="715" y="58" /><text fill="#ffffff" font-size="12" font-weight="bold" text-anchor="middle" x="730" y="75">RX</text><title>:rx gate on qubit 0, θ=0.38 (0.121π)</title></g><g class="gate-group"><rect fill="#ec4899" height="24" rx="4" stroke="#ffffff" stroke-width="2" width="30" x="715" y="118" /><text fill="#ffffff" font-size="12" font-weight="bold" text-anchor="middle" x="730" y="135">RX</text><title>:rx gate on qubit 1, θ=0.38 (0.121π)</title></g><g class="gate-group"><rect fill="#ec4899" height="24" rx="4" stroke="#ffffff" stroke-width="2" width="30" x="715" y="178" /><text fill="#ffffff" font-size="12" font-weight="bold" text-anchor="middle" x="730" y="195">RX</text><title>:rx gate on qubit 2, θ=0.38 (0.121π)</title></g><g class="gate-group"><circle cx="790" cy="70" fill="#374151" r="6" stroke="#ffffff" stroke-width="2" /><circle cx="790" cy="130" fill="none" r="12" stroke="#374151" stroke-width="2" /><line stroke="#374151" stroke-width="2" x1="782" x2="798" y1="130" y2="130" /><line stroke="#374151" stroke-width="2" x1="790" x2="790" y1="122" y2="138" /><line stroke="#374151" stroke-width="2" x1="790" x2="790" y1="70" y2="130" /><title>CNOT: control=0, target=1</title></g><g class="gate-group"><rect fill="#6366f1" height="24" rx="4" stroke="#ffffff" stroke-width="2" width="30" x="835" y="118" /><text fill="#ffffff" font-size="12" font-weight="bold" text-anchor="middle" x="850" y="135">RZ</text><title>:rz gate on qubit 1, φ=-0.662 (-0.211π)</title></g><g class="gate-group"><circle cx="910" cy="70" fill="#374151" r="6" stroke="#ffffff" stroke-width="2" /><circle cx="910" cy="130" fill="none" r="12" stroke="#374151" stroke-width="2" /><line stroke="#374151" stroke-width="2" x1="902" x2="918" y1="130" y2="130" /><line stroke="#374151" stroke-width="2" x1="910" x2="910" y1="122" y2="138" /><line stroke="#374151" stroke-width="2" x1="910" x2="910" y1="70" y2="130" /><title>CNOT: control=0, target=1</title></g><g class="gate-group"><circle cx="970" cy="130" fill="#374151" r="6" stroke="#ffffff" stroke-width="2" /><circle cx="970" cy="190" fill="none" r="12" stroke="#374151" stroke-width="2" /><line stroke="#374151" stroke-width="2" x1="962" x2="978" y1="190" y2="190" /><line stroke="#374151" stroke-width="2" x1="970" x2="970" y1="182" y2="198" /><line stroke="#374151" stroke-width="2" x1="970" x2="970" y1="130" y2="190" /><title>CNOT: control=1, target=2</title></g><g class="gate-group"><rect fill="#6366f1" height="24" rx="4" stroke="#ffffff" stroke-width="2" width="30" x="1015" y="178" /><text fill="#ffffff" font-size="12" font-weight="bold" text-anchor="middle" x="1030" y="195">RZ</text><title>:rz gate on qubit 2, φ=-0.662 (-0.211π)</title></g><g class="gate-group"><circle cx="1090" cy="130" fill="#374151" r="6" stroke="#ffffff" stroke-width="2" /><circle cx="1090" cy="190" fill="none" r="12" stroke="#374151" stroke-width="2" /><line stroke="#374151" stroke-width="2" x1="1082" x2="1098" y1="190" y2="190" /><line stroke="#374151" stroke-width="2" x1="1090" x2="1090" y1="182" y2="198" /><line stroke="#374151" stroke-width="2" x1="1090" x2="1090" y1="130" y2="190" /><title>CNOT: control=1, target=2</title></g><g class="gate-group"><circle cx="1150" cy="70" fill="#374151" r="6" stroke="#ffffff" stroke-width="2" /><circle cx="1150" cy="190" fill="none" r="12" stroke="#374151" stroke-width="2" /><line stroke="#374151" stroke-width="2" x1="1142" x2="1158" y1="190" y2="190" /><line stroke="#374151" stroke-width="2" x1="1150" x2="1150" y1="182" y2="198" /><line stroke="#374151" stroke-width="2" x1="1150" x2="1150" y1="70" y2="190" /><title>CNOT: control=0, target=2</title></g><g class="gate-group"><rect fill="#6366f1" height="24" rx="4" stroke="#ffffff" stroke-width="2" width="30" x="1195" y="178" /><text fill="#ffffff" font-size="12" font-weight="bold" text-anchor="middle" x="1210" y="195">RZ</text><title>:rz gate on qubit 2, φ=-0.662 (-0.211π)</title></g><g class="gate-group"><circle cx="1270" cy="70" fill="#374151" r="6" stroke="#ffffff" stroke-width="2" /><circle cx="1270" cy="190" fill="none" r="12" stroke="#374151" stroke-width="2" /><line stroke="#374151" stroke-width="2" x1="1262" x2="1278" y1="190" y2="190" /><line stroke="#374151" stroke-width="2" x1="1270" x2="1270" y1="182" y2="198" /><line stroke="#374151" stroke-width="2" x1="1270" x2="1270" y1="70" y2="190" /><title>CNOT: control=0, target=2</title></g><g class="gate-group"><rect fill="#ec4899" height="24" rx="4" stroke="#ffffff" stroke-width="2" width="30" x="1315" y="58" /><text fill="#ffffff" font-size="12" font-weight="bold" text-anchor="middle" x="1330" y="75">RX</text><title>:rx gate on qubit 0, θ=0.42 (0.134π)</title></g><g class="gate-group"><rect fill="#ec4899" height="24" rx="4" stroke="#ffffff" stroke-width="2" width="30" x="1315" y="118" /><text fill="#ffffff" font-size="12" font-weight="bold" text-anchor="middle" x="1330" y="135">RX</text><title>:rx gate on qubit 1, θ=0.42 (0.134π)</title></g><g class="gate-group"><rect fill="#ec4899" height="24" rx="4" stroke="#ffffff" stroke-width="2" width="30" x="1315" y="178" /><text fill="#ffffff" font-size="12" font-weight="bold" text-anchor="middle" x="1330" y="195">RX</text><title>:rx gate on qubit 2, θ=0.42 (0.134π)</title></g><g><rect fill="#fbbf24" height="24" rx="4" stroke="#f59e0b" stroke-width="2" width="30" x="1455" y="58" /><text fill="#92400e" font-size="10" font-weight="bold" text-anchor="middle" x="1470" y="75">M</text><title>Measure qubit 0</title></g><g><rect fill="#fbbf24" height="24" rx="4" stroke="#f59e0b" stroke-width="2" width="30" x="1455" y="118" /><text fill="#92400e" font-size="10" font-weight="bold" text-anchor="middle" x="1470" y="135">M</text><title>Measure qubit 1</title></g><g><rect fill="#fbbf24" height="24" rx="4" stroke="#f59e0b" stroke-width="2" width="30" x="1455" y="178" /><text fill="#92400e" font-size="10" font-weight="bold" text-anchor="middle" x="1470" y="195">M</text><title>Measure qubit 2</title></g><g><text fill="#6b7280" font-size="12" x="30" y="250">Qubits: 3 | Gates: 27 | Depth: 21</text></g></svg>