<svg height="400" style="background-color: #f9fafb; border: 1px solid #e5e7eb; border-radius: 8px;" width="600" xmlns="http://www.w3.org/2000/svg"><defs><style>text { font-family: 'SF Pro Display', 'Segoe UI', system-ui, sans-serif; }
                     rect:hover { opacity: 1; stroke-width: 2; }</style></defs><text fill="#111827" font-size="16" font-weight="bold" text-anchor="middle" x="300" y="25">Measurement Results (10000 shots)</text><text fill="#374151" font-size="12" text-anchor="middle" transform="rotate(-90 20 200)" x="20" y="200">Measurement Counts</text><text fill="#374151" font-size="12" text-anchor="middle" x="300" y="390">Basis States</text><g><line stroke="#9ca3af" stroke-width="1" x1="80" x2="80" y1="60" y2="300" /><g><line stroke="#9ca3af" stroke-width="1" x1="75" x2="80" y1="300" y2="300" /><text fill="#6b7280" font-size="10" text-anchor="end" x="70" y="303">0</text></g><g><line stroke="#9ca3af" stroke-width="1" x1="75" x2="80" y1="252" y2="252" /><text fill="#6b7280" font-size="10" text-anchor="end" x="70" y="255">960</text></g><g><line stroke="#9ca3af" stroke-width="1" x1="75" x2="80" y1="204" y2="204" /><text fill="#6b7280" font-size="10" text-anchor="end" x="70" y="207">1920</text></g><g><line stroke="#9ca3af" stroke-width="1" x1="75" x2="80" y1="156" y2="156" /><text fill="#6b7280" font-size="10" text-anchor="end" x="70" y="159">2880</text></g><g><line stroke="#9ca3af" stroke-width="1" x1="75" x2="80" y1="108" y2="108" /><text fill="#6b7280" font-size="10" text-anchor="end" x="70" y="111">3840</text></g><g><line stroke="#9ca3af" stroke-width="1" x1="75" x2="80" y1="60" y2="60" /><text fill="#6b7280" font-size="10" text-anchor="end" x="70" y="63">4800</text></g></g><line stroke="#9ca3af" stroke-width="1" x1="80" x2="560" y1="300" y2="300" /><g class="bar-group"><rect fill="#7c3aed" height="240" opacity="0.8" stroke="#ffffff" stroke-width="1" width="58" x="80" y="60"><title>|000⟩: 4800 shots (48.0%)</title></rect><text fill="#374151" font-size="12" text-anchor="middle" x="110" y="320">|000⟩</text><text fill="#6b7280" font-size="10" text-anchor="middle" x="110" y="55">4800 shots</text></g><g class="bar-group"><rect fill="#3b82f6" height="225.5" opacity="0.8" stroke="#ffffff" stroke-width="1" width="58" x="140" y="74.5"><title>|111⟩: 4510 shots (45.1%)</title></rect><text fill="#374151" font-size="12" text-anchor="middle" x="170" y="320">|111⟩</text><text fill="#6b7280" font-size="10" text-anchor="middle" x="170" y="69.5">4510 shots</text></g><g class="bar-group"><rect fill="#10b981" height="7.9" opacity="0.8" stroke="#ffffff" stroke-width="1" width="58" x="200" y="292.1"><title>|101⟩: 158 shots (1.6%)</title></rect><text fill="#374151" font-size="12" text-anchor="middle" x="230" y="320">|101⟩</text><text fill="#6b7280" font-size="10" text-anchor="middle" x="230" y="287.1">158 shots</text></g><g class="bar-group"><rect fill="#f59e0b" height="7.75" opacity="0.8" stroke="#ffffff" stroke-width="1" width="58" x="260" y="292.25"><title>|110⟩: 155 shots (1.6%)</title></rect><text fill="#374151" font-size="12" text-anchor="middle" x="290" y="320">|110⟩</text><text fill="#6b7280" font-size="10" text-anchor="middle" x="290" y="287.25">155 shots</text></g><g class="bar-group"><rect fill="#ef4444" height="6.5" opacity="0.8" stroke="#ffffff" stroke-width="1" width="58" x="320" y="293.5"><title>|011⟩: 130 shots (1.3%)</title></rect><text fill="#374151" font-size="12" text-anchor="middle" x="350" y="320">|011⟩</text><text fill="#6b7280" font-size="10" text-anchor="middle" x="350" y="288.5">130 shots</text></g><g class="bar-group"><rect fill="#8b5cf6" height="4.8" opacity="0.8" stroke="#ffffff" stroke-width="1" width="58" x="380" y="295.2"><title>|010⟩: 96 shots (1.0%)</title></rect><text fill="#374151" font-size="12" text-anchor="middle" x="410" y="320">|010⟩</text><text fill="#6b7280" font-size="10" text-anchor="middle" x="410" y="290.2">96 shots</text></g><g class="bar-group"><rect fill="#06b6d4" height="4.65" opacity="0.8" stroke="#ffffff" stroke-width="1" width="58" x="440" y="295.35"><title>|001⟩: 93 shots (0.9%)</title></rect><text fill="#374151" font-size="12" text-anchor="middle" x="470" y="320">|001⟩</text><text fill="#6b7280" font-size="10" text-anchor="middle" x="470" y="290.35">93 shots</text></g><g class="bar-group"><rect fill="#84cc16" height="2.9" opacity="0.8" stroke="#ffffff" stroke-width="1" width="58" x="500" y="297.1"><title>|100⟩: 58 shots (0.6%)</title></rect><text fill="#374151" font-size="12" text-anchor="middle" x="530" y="320">|100⟩</text><text fill="#6b7280" font-size="10" text-anchor="middle" x="530" y="292.1">58 shots</text></g></svg>