<svg height="340" style="background-color: #ffffff; border: 1px solid #e5e7eb; border-radius: 8px;" width="1140" xmlns="http://www.w3.org/2000/svg"><defs><style>.gate-group:hover rect { opacity: 1; stroke-width: 3; }
                         .gate-group:hover circle { stroke-width: 3; }
                         text { font-family: 'SF Pro Display', 'Segoe UI', system-ui, sans-serif; }</style></defs><text fill="#111827" font-size="18" font-weight="bold" text-anchor="middle" x="570" y="35">Optimization Test Circuit</text><g><text fill="#374151" font-size="14" x="30" y="75">q0 |0⟩</text><line stroke="#9ca3af" stroke-width="2" x1="70" x2="1090" y1="70" y2="70" /></g><g><text fill="#374151" font-size="14" x="30" y="135">q1 |0⟩</text><line stroke="#9ca3af" stroke-width="2" x1="70" x2="1090" y1="130" y2="130" /></g><g><text fill="#374151" font-size="14" x="30" y="195">q2 |0⟩</text><line stroke="#9ca3af" stroke-width="2" x1="70" x2="1090" y1="190" y2="190" /></g><g><text fill="#374151" font-size="14" x="30" y="255">q3 |0⟩</text><line stroke="#9ca3af" stroke-width="2" x1="70" x2="1090" y1="250" y2="250" /></g><g class="gate-group"><rect fill="#8b5cf6" height="24" rx="4" stroke="#ffffff" stroke-width="2" width="30" x="115" y="58" /><text fill="#ffffff" font-size="12" font-weight="bold" text-anchor="middle" x="130" y="75">H</text><title>:h gate on qubit 0</title></g><g class="gate-group"><circle cx="190" cy="70" fill="#374151" r="6" stroke="#ffffff" stroke-width="2" /><circle cx="190" cy="130" fill="none" r="12" stroke="#374151" stroke-width="2" /><line stroke="#374151" stroke-width="2" x1="182" x2="198" y1="130" y2="130" /><line stroke="#374151" stroke-width="2" x1="190" x2="190" y1="122" y2="138" /><line stroke="#374151" stroke-width="2" x1="190" x2="190" y1="70" y2="130" /><title>CNOT: control=0, target=1</title></g><g class="gate-group"><rect fill="#6366f1" height="24" rx="4" stroke="#ffffff" stroke-width="2" width="30" x="235" y="118" /><text fill="#ffffff" font-size="12" font-weight="bold" text-anchor="middle" x="250" y="135">RZ</text><title>:rz gate on qubit 1, φ=π/4</title></g><g class="gate-group"><circle cx="310" cy="130" fill="#374151" r="6" stroke="#ffffff" stroke-width="2" /><circle cx="310" cy="190" fill="none" r="12" stroke="#374151" stroke-width="2" /><line stroke="#374151" stroke-width="2" x1="302" x2="318" y1="190" y2="190" /><line stroke="#374151" stroke-width="2" x1="310" x2="310" y1="182" y2="198" /><line stroke="#374151" stroke-width="2" x1="310" x2="310" y1="130" y2="190" /><title>CNOT: control=1, target=2</title></g><g class="gate-group"><rect fill="#8b5cf6" height="24" rx="4" stroke="#ffffff" stroke-width="2" width="30" x="115" y="238" /><text fill="#ffffff" font-size="12" font-weight="bold" text-anchor="middle" x="130" y="255">H</text><title>:h gate on qubit 3</title></g><g class="gate-group"><circle cx="370" cy="130" fill="#374151" r="6" stroke="#ffffff" stroke-width="2" /><circle cx="370" cy="250" fill="none" r="12" stroke="#374151" stroke-width="2" /><line stroke="#374151" stroke-width="2" x1="362" x2="378" y1="250" y2="250" /><line stroke="#374151" stroke-width="2" x1="370" x2="370" y1="242" y2="258" /><line stroke="#374151" stroke-width="2" x1="370" x2="370" y1="130" y2="250" /><title>CNOT: control=1, target=3</title></g><g class="gate-group"><rect fill="#6366f1" height="24" rx="4" stroke="#ffffff" stroke-width="2" width="30" x="415" y="238" /><text fill="#ffffff" font-size="12" font-weight="bold" text-anchor="middle" x="430" y="255">RZ</text><title>:rz gate on qubit 3, φ=-π/4</title></g><g class="gate-group"><circle cx="490" cy="70" fill="#374151" r="6" stroke="#ffffff" stroke-width="2" /><circle cx="490" cy="250" fill="none" r="12" stroke="#374151" stroke-width="2" /><line stroke="#374151" stroke-width="2" x1="482" x2="498" y1="250" y2="250" /><line stroke="#374151" stroke-width="2" x1="490" x2="490" y1="242" y2="258" /><line stroke="#374151" stroke-width="2" x1="490" x2="490" y1="70" y2="250" /><title>CNOT: control=0, target=3</title></g><g class="gate-group"><rect fill="#6366f1" height="24" rx="4" stroke="#ffffff" stroke-width="2" width="30" x="535" y="238" /><text fill="#ffffff" font-size="12" font-weight="bold" text-anchor="middle" x="550" y="255">RZ</text><title>:rz gate on qubit 3, φ=π/4</title></g><g class="gate-group"><circle cx="610" cy="130" fill="#374151" r="6" stroke="#ffffff" stroke-width="2" /><circle cx="610" cy="250" fill="none" r="12" stroke="#374151" stroke-width="2" /><line stroke="#374151" stroke-width="2" x1="602" x2="618" y1="250" y2="250" /><line stroke="#374151" stroke-width="2" x1="610" x2="610" y1="242" y2="258" /><line stroke="#374151" stroke-width="2" x1="610" x2="610" y1="130" y2="250" /><title>CNOT: control=1, target=3</title></g><g class="gate-group"><rect fill="#6366f1" height="24" rx="4" stroke="#ffffff" stroke-width="2" width="30" x="655" y="238" /><text fill="#ffffff" font-size="12" font-weight="bold" text-anchor="middle" x="670" y="255">RZ</text><title>:rz gate on qubit 3, φ=-π/4</title></g><g class="gate-group"><circle cx="730" cy="70" fill="#374151" r="6" stroke="#ffffff" stroke-width="2" /><circle cx="730" cy="250" fill="none" r="12" stroke="#374151" stroke-width="2" /><line stroke="#374151" stroke-width="2" x1="722" x2="738" y1="250" y2="250" /><line stroke="#374151" stroke-width="2" x1="730" x2="730" y1="242" y2="258" /><line stroke="#374151" stroke-width="2" x1="730" x2="730" y1="70" y2="250" /><title>CNOT: control=0, target=3</title></g><g class="gate-group"><rect fill="#6366f1" height="24" rx="4" stroke="#ffffff" stroke-width="2" width="30" x="775" y="118" /><text fill="#ffffff" font-size="12" font-weight="bold" text-anchor="middle" x="790" y="135">RZ</text><title>:rz gate on qubit 1, φ=π/4</title></g><g class="gate-group"><rect fill="#6366f1" height="24" rx="4" stroke="#ffffff" stroke-width="2" width="30" x="775" y="238" /><text fill="#ffffff" font-size="12" font-weight="bold" text-anchor="middle" x="790" y="255">RZ</text><title>:rz gate on qubit 3, φ=π/4</title></g><g class="gate-group"><circle cx="850" cy="70" fill="#374151" r="6" stroke="#ffffff" stroke-width="2" /><circle cx="850" cy="130" fill="none" r="12" stroke="#374151" stroke-width="2" /><line stroke="#374151" stroke-width="2" x1="842" x2="858" y1="130" y2="130" /><line stroke="#374151" stroke-width="2" x1="850" x2="850" y1="122" y2="138" /><line stroke="#374151" stroke-width="2" x1="850" x2="850" y1="70" y2="130" /><title>CNOT: control=0, target=1</title></g><g class="gate-group"><rect fill="#8b5cf6" height="24" rx="4" stroke="#ffffff" stroke-width="2" width="30" x="835" y="238" /><text fill="#ffffff" font-size="12" font-weight="bold" text-anchor="middle" x="850" y="255">H</text><title>:h gate on qubit 3</title></g><g class="gate-group"><rect fill="#6366f1" height="24" rx="4" stroke="#ffffff" stroke-width="2" width="30" x="895" y="58" /><text fill="#ffffff" font-size="12" font-weight="bold" text-anchor="middle" x="910" y="75">RZ</text><title>:rz gate on qubit 0, φ=π/4</title></g><g class="gate-group"><rect fill="#6366f1" height="24" rx="4" stroke="#ffffff" stroke-width="2" width="30" x="895" y="118" /><text fill="#ffffff" font-size="12" font-weight="bold" text-anchor="middle" x="910" y="135">RZ</text><title>:rz gate on qubit 1, φ=-π/4</title></g><g class="gate-group"><circle cx="970" cy="70" fill="#374151" r="6" stroke="#ffffff" stroke-width="2" /><circle cx="970" cy="130" fill="none" r="12" stroke="#374151" stroke-width="2" /><line stroke="#374151" stroke-width="2" x1="962" x2="978" y1="130" y2="130" /><line stroke="#374151" stroke-width="2" x1="970" x2="970" y1="122" y2="138" /><line stroke="#374151" stroke-width="2" x1="970" x2="970" y1="70" y2="130" /><title>CNOT: control=0, target=1</title></g><g><rect fill="#fbbf24" height="24" rx="4" stroke="#f59e0b" stroke-width="2" width="30" x="1095" y="58" /><text fill="#92400e" font-size="10" font-weight="bold" text-anchor="middle" x="1110" y="75">M</text><title>Measure qubit 0</title></g><g><rect fill="#fbbf24" height="24" rx="4" stroke="#f59e0b" stroke-width="2" width="30" x="1095" y="118" /><text fill="#92400e" font-size="10" font-weight="bold" text-anchor="middle" x="1110" y="135">M</text><title>Measure qubit 1</title></g><g><rect fill="#fbbf24" height="24" rx="4" stroke="#f59e0b" stroke-width="2" width="30" x="1095" y="178" /><text fill="#92400e" font-size="10" font-weight="bold" text-anchor="middle" x="1110" y="195">M</text><title>Measure qubit 2</title></g><g><rect fill="#fbbf24" height="24" rx="4" stroke="#f59e0b" stroke-width="2" width="30" x="1095" y="238" /><text fill="#92400e" font-size="10" font-weight="bold" text-anchor="middle" x="1110" y="255">M</text><title>Measure qubit 3</title></g><g><text fill="#6b7280" font-size="12" x="30" y="310">Qubits: 4 | Gates: 19 | Depth: 15</text></g></svg>