<svg height="420" style="background: linear-gradient(135deg, #f1f5f9 0%, #e2e8f0 100%); border: 1px solid #cbd5e1; border-radius: 8px;" width="420" xmlns="http://www.w3.org/2000/svg"><defs><style>text { font-family: 'SF Pro Display', 'Segoe UI', system-ui, sans-serif; }</style></defs><ellipse cx="210" cy="210" fill="#475569" opacity="0.2" rx="134.4" ry="77.5488" /><path d="M 210.0,102.47999999999999 L 210.0,102.47999999999999 L 210.0,102.47999999999999 L 210.0,102.47999999999999 L 210.0,102.47999999999999 L 210.0,102.47999999999999 L 210.0,102.47999999999999 L 210.0,102.47999999999999 L 210.0,102.47999999999999 L 210.0,102.47999999999999 L 210.0,102.47999999999999 L 210.0,102.47999999999999 L 210.0,102.47999999999999 L 210.0,102.47999999999999 L 210.0,102.47999999999999 L 210.0,102.47999999999999 L 210.0,102.47999999999999 L 210.0,102.47999999999999 L 210.0,102.47999999999999 L 210.0,102.47999999999999 L 210.0,102.47999999999999 L 210.0,102.47999999999999 L 210.0,102.47999999999999 L 210.0,102.47999999999999 L 210.0,102.47999999999999 L 210.0,102.47999999999999 L 210.0,102.47999999999999 L 210.0,102.47999999999999 L 210.0,102.47999999999999 L 210.0,102.47999999999999 L 210.0,102.47999999999999 L 210.0,102.47999999999999 L 210.0,102.47999999999999" fill="none" opacity="0.8" stroke="#475569" stroke-width="1.4" /><path d="M 260.5013833450272,83.97084005443199 L 249.67868228576222,78.84283735381581 L 237.33115171831682,75.03238759047659 L 223.93330031782295,72.68592421189456 L 210.0,71.8936204897968 L 196.06669968217705,72.68592421189453 L 182.6688482816832,75.03238759047659 L 170.32131771423778,78.84283735381581 L 159.49861665497284,83.97084005443199 L 150.6166554361552,90.21932942435744 L 144.01676284636284,97.34817952129917 L 139.95256905655904,105.0834326339369 L 138.58025875485984,113.1278273231319 L 139.952569056559,121.17222201232688 L 144.01676284636284,128.9074751249646 L 150.6166554361552,136.03632522190634 L 159.4986166549728,142.28481459183178 L 170.3213177142378,147.41281729244798 L 182.66884828168318,151.2232670557872 L 196.06669968217702,153.56973043436923 L 209.99999999999997,154.36203415646696 L 223.93330031782295,153.56973043436923 L 237.3311517183168,151.22326705578723 L 249.67868228576216,147.41281729244798 L 260.5013833450272,142.2848145918318 L 269.3833445638448,136.03632522190634 L 275.98323715363716,128.90747512496458 L 280.047430943441,121.17222201232691 L 281.41974124514013,113.12782732313191 L 280.047430943441,105.08343263393691 L 275.98323715363716,97.34817952129919 L 269.3833445638448,90.21932942435744 L 260.5013833450272,83.97084005443199" fill="none" opacity="0.8" stroke="#475569" stroke-width="1.4" /><path d="M 301.0003483597504,90.42330088229738 L 281.49851491772586,81.18295930674799 L 259.2490336442423,74.31676608779838 L 235.10693962698673,70.08858518024735 L 210.00000000000003,68.6609032051808 L 184.8930603730133,70.08858518024732 L 160.75096635575773,74.31676608779838 L 138.50148508227412,81.18295930674799 L 118.99965164024961,90.42330088229738 L 102.99491055210702,101.68268966974148 L 91.10231504230143,114.52843367231675 L 83.77889088683028,128.4668781519805 L 81.30607316896476,142.96237650414895 L 83.77889088683027,157.45787485631746 L 91.1023150423014,171.39631933598116 L 102.994910552107,184.24206333855645 L 118.9996516402496,195.50145212600054 L 138.50148508227414,204.74179370154997 L 160.75096635575767,211.60798692049954 L 184.89306037301324,215.8361678280506 L 209.99999999999997,217.26384980311715 L 235.10693962698673,215.8361678280506 L 259.2490336442423,211.60798692049954 L 281.4985149177258,204.74179370155 L 301.0003483597504,195.50145212600057 L 317.005089447893,184.24206333855648 L 328.89768495769863,171.39631933598116 L 336.2211091131697,157.4578748563175 L 338.69392683103524,142.962376504149 L 336.22110911316975,128.4668781519805 L 328.89768495769863,114.52843367231678 L 317.005089447893,101.68268966974148 L 301.00034835975043,90.4233008822974" fill="none" opacity="0.8" stroke="#475569" stroke-width="1.4" /><path d="M 323.475578335793,120.55939348239853 L 299.1571897984932,109.03687600630592 L 271.41254045716545,100.47487310709259 L 241.30784162661828,95.20241775454879 L 210.00000000000003,93.42212745104577 L 178.69215837338174,95.20241775454879 L 148.58745954283455,100.47487310709259 L 120.84281020150678,109.03687600630592 L 96.524421664207,120.55939348239853 L 76.5668359645143,134.59962165066645 L 61.737011928524794,150.6180024164538 L 52.604851377280454,167.99895839014283 L 49.52129811939096,186.07454918101703 L 52.604851377280454,204.1501399718913 L 61.737011928524765,221.5310959455803 L 76.56683596451427,237.54947671136765 L 96.52442166420698,251.58970487963558 L 120.8428102015068,263.11222235572825 L 148.5874595428345,271.6742252549415 L 178.6921583733817,276.9466806074853 L 209.99999999999994,278.72697091098837 L 241.30784162661828,276.9466806074853 L 271.4125404571654,271.6742252549415 L 299.1571897984931,263.11222235572825 L 323.475578335793,251.5897048796356 L 343.43316403548573,237.54947671136767 L 358.2629880714752,221.53109594558026 L 367.3951486227195,204.15013997189135 L 370.47870188060904,186.0745491810171 L 367.39514862271955,167.99895839014283 L 358.2629880714752,150.61800241645386 L 343.43316403548573,134.59962165066645 L 323.47557833579305,120.55939348239855" fill="none" opacity="0.8" stroke="#475569" stroke-width="1.4" /><path d="M 323.475578335793,168.41029512036437 L 299.1571897984932,156.88777764427175 L 271.41254045716545,148.32577474505845 L 241.30784162661828,143.05331939251465 L 210.00000000000003,141.27302908901163 L 178.69215837338174,143.05331939251465 L 148.58745954283455,148.32577474505842 L 120.84281020150678,156.88777764427175 L 96.524421664207,168.41029512036437 L 76.5668359645143,182.4505232886323 L 61.737011928524794,198.46890405441968 L 52.604851377280454,215.84986002810868 L 49.52129811939096,233.92545081898288 L 52.604851377280454,252.00104160985717 L 61.737011928524765,269.38199758354614 L 76.56683596451427,285.4003783493335 L 96.52442166420698,299.44060651760145 L 120.8428102015068,310.96312399369407 L 148.5874595428345,319.5251268929074 L 178.6921583733817,324.79758224545117 L 209.99999999999994,326.57787254895425 L 241.30784162661828,324.79758224545117 L 271.4125404571654,319.5251268929074 L 299.1571897984931,310.9631239936941 L 323.475578335793,299.44060651760145 L 343.43316403548573,285.40037834933355 L 358.2629880714752,269.3819975835461 L 367.3951486227195,252.00104160985723 L 370.47870188060904,233.92545081898294 L 367.39514862271955,215.8498600281087 L 358.2629880714752,198.4689040544197 L 343.43316403548573,182.4505232886323 L 323.47557833579305,168.4102951203644" fill="none" opacity="0.8" stroke="#475569" stroke-width="1.4" /><path d="M 301.00034835975043,224.49854787399943 L 281.4985149177259,215.25820629845003 L 259.2490336442423,208.39201307950043 L 235.10693962698673,204.1638321719494 L 210.0,202.73615019688285 L 184.8930603730133,204.16383217194937 L 160.75096635575773,208.39201307950043 L 138.50148508227412,215.25820629845003 L 118.9996516402496,224.49854787399943 L 102.994910552107,235.75793666144352 L 91.1023150423014,248.6036806640188 L 83.77889088683027,262.54212514368254 L 81.30607316896476,277.037623495851 L 83.77889088683024,291.5331218480195 L 91.10231504230138,305.47156632768326 L 102.99491055210699,318.3173103302585 L 118.99965164024958,329.5766991177026 L 138.50148508227412,338.817040693252 L 160.75096635575767,345.6832339122016 L 184.89306037301324,349.9114148197527 L 209.99999999999994,351.3390967948192 L 235.10693962698673,349.9114148197527 L 259.2490336442423,345.6832339122016 L 281.4985149177258,338.81704069325207 L 301.0003483597504,329.5766991177026 L 317.005089447893,318.3173103302585 L 328.89768495769863,305.4715663276832 L 336.22110911316975,291.53312184801956 L 338.69392683103524,277.03762349585105 L 336.22110911316975,262.5421251436826 L 328.89768495769863,248.60368066401884 L 317.005089447893,235.75793666144352 L 301.00034835975043,224.49854787399946" fill="none" opacity="0.8" stroke="#475569" stroke-width="1.4" /><path d="M 260.5013833450272,277.7151854081682 L 249.67868228576222,272.587182707552 L 237.33115171831682,268.77673294421277 L 223.93330031782295,266.43026956563074 L 210.0,265.63796584353304 L 196.06669968217705,266.43026956563074 L 182.6688482816832,268.77673294421277 L 170.32131771423778,272.587182707552 L 159.49861665497284,277.7151854081682 L 150.6166554361552,283.96367477809366 L 144.01676284636284,291.0925248750354 L 139.95256905655904,298.82777798767313 L 138.58025875485984,306.8721726768681 L 139.952569056559,314.9165673660631 L 144.01676284636284,322.6518204787008 L 150.6166554361552,329.78067057564255 L 159.4986166549728,336.02915994556804 L 170.3213177142378,341.1571626461842 L 182.66884828168318,344.96761240952344 L 196.06669968217702,347.31407578810547 L 209.99999999999997,348.10637951020317 L 223.93330031782295,347.31407578810547 L 237.3311517183168,344.96761240952344 L 249.67868228576216,341.1571626461842 L 260.5013833450272,336.02915994556804 L 269.3833445638448,329.78067057564255 L 275.98323715363716,322.6518204787008 L 280.047430943441,314.91656736606313 L 281.41974124514013,306.8721726768681 L 280.047430943441,298.82777798767313 L 275.98323715363716,291.0925248750354 L 269.3833445638448,283.96367477809366 L 260.5013833450272,277.7151854081682" fill="none" opacity="0.8" stroke="#475569" stroke-width="1.4" /><path d="M 210.00000000000003,317.52 L 210.0,317.52 L 210.0,317.52 L 210.0,317.52 L 210.0,317.52 L 210.0,317.52 L 210.0,317.52 L 210.0,317.52 L 209.99999999999997,317.52 L 209.99999999999997,317.52 L 209.99999999999997,317.52 L 209.99999999999997,317.52 L 209.99999999999997,317.52 L 209.99999999999997,317.52 L 209.99999999999997,317.52 L 209.99999999999997,317.52 L 209.99999999999997,317.52000000000004 L 210.0,317.52000000000004 L 210.0,317.52000000000004 L 210.0,317.52000000000004 L 210.0,317.52000000000004 L 210.0,317.52000000000004 L 210.0,317.52000000000004 L 210.0,317.52000000000004 L 210.00000000000003,317.52000000000004 L 210.00000000000003,317.52 L 210.00000000000003,317.52 L 210.00000000000003,317.52 L 210.00000000000003,317.52 L 210.00000000000003,317.52 L 210.00000000000003,317.52 L 210.00000000000003,317.52 L 210.00000000000003,317.52" fill="none" opacity="0.8" stroke="#475569" stroke-width="1.4" /><path d="M 210.0,102.47999999999999 L 221.40858882666097,96.4109863580589 L 232.70730670635217,91.43589701156084 L 243.78734080938466,87.60264479057304 L 254.54198435038353,84.94814600945242 L 264.86766423296274,83.49796494255783 L 274.6649385152623,83.26606762631306 L 283.8394540902086,84.25468735864153 L 292.3028553575148,86.45430319108641 L 299.97363513641073,89.84373162074893 L 306.77791962435106,94.39033059900132 L 312.6501798421165,100.05031389225928 L 317.53386271370607,106.76917276734707 L 321.3819357033738,114.48220094039578 L 324.1573397646584,123.11511773372881 L 325.8333462392596,132.58478343939402 L 326.39381426862855,142.8 L 325.8333462392596,153.66238929586274 L 324.1573397646584,165.06734058007703 L 321.38193570337376,176.90501793719537 L 317.53386271370607,189.061418063136 L 312.6501798421165,201.41946817932183 L 306.77791962435106,213.86015350753658 L 299.9736351364108,226.26366344729922 L 292.30285535751483,238.51054541744156 L 283.8394540902086,250.48285524976453 L 274.66493851526224,262.06529305585246 L 264.8676642329628,273.14631362802805 L 254.5419843503836,283.6192006806795 L 243.7873408093847,293.3830945864272 L 232.7073067063522,302.3439637094715 L 221.40858882666097,310.41550998164814 L 210.00000000000003,317.52" fill="none" opacity="0.8" stroke="#475569" stroke-width="1.4" /><path d="M 210.0,102.47999999999999 L 210.0,93.68266441802643 L 210.0,86.00552836323088 L 210.0,79.52252685257048 L 210.0,74.29609473456202 L 210.0,70.37656540756032 L 210.0,67.80168608161708 L 210.00000000000003,66.59625425221336 L 210.00000000000003,66.7718788868224 L 210.0,68.32686862420672 L 210.00000000000003,71.24624806315148 L 210.0,75.50190198376441 L 210.00000000000003,81.05284611241305 L 210.00000000000003,87.84562182268373 L 210.00000000000003,95.81481097117758 L 210.00000000000003,104.88366590999274 L 210.00000000000003,114.96484860852802 L 210.00000000000003,125.96127176646148 L 210.00000000000003,137.76703381752583 L 210.0,150.2684388194833 L 210.00000000000003,163.34509140820197 L 210.00000000000003,176.87105627082698 L 210.0,190.71607097168672 L 210.00000000000003,204.74680045075704 L 210.0,218.8281211131776 L 210.00000000000003,232.82442214333634 L 210.0,246.60091151115645 L 210.0,260.02491409303053 L 210.0,272.9671494057891 L 210.0,285.3029766484247 L 210.0,296.91359506114156 L 210.0,307.6871880416157 L 210.0,317.52" fill="none" opacity="0.8" stroke="#475569" stroke-width="1.4" /><path d="M 210.0,102.47999999999999 L 198.59141117333903,96.4109863580589 L 187.29269329364783,91.43589701156084 L 176.21265919061534,87.60264479057304 L 165.45801564961647,84.94814600945242 L 155.13233576703726,83.49796494255783 L 145.33506148473774,83.26606762631306 L 136.16054590979135,84.25468735864153 L 127.69714464248521,86.45430319108641 L 120.02636486358924,89.84373162074893 L 113.22208037564896,94.39033059900132 L 107.3498201578835,100.05031389225928 L 102.4661372862939,106.76917276734707 L 98.6180642966262,114.48220094039577 L 95.84266023534161,123.1151177337288 L 94.16665376074043,132.58478343939402 L 93.60618573137144,142.8 L 94.16665376074043,153.66238929586274 L 95.84266023534161,165.06734058007703 L 98.61806429662622,176.90501793719534 L 102.4661372862939,189.061418063136 L 107.3498201578835,201.41946817932183 L 113.22208037564894,213.86015350753658 L 120.0263648635892,226.26366344729922 L 127.69714464248518,238.51054541744156 L 136.16054590979135,250.48285524976453 L 145.33506148473776,262.06529305585246 L 155.1323357670372,273.14631362802805 L 165.4580156496164,283.6192006806795 L 176.2126591906153,293.3830945864272 L 187.2926932936478,302.3439637094715 L 198.59141117333903,310.41550998164814 L 209.99999999999997,317.52" fill="none" opacity="0.8" stroke="#475569" stroke-width="1.4" /><path d="M 210.0,102.47999999999999 L 193.86581895379788,102.99773818820537 L 177.88701889091124,104.54596665104465 L 162.21748439084624,107.1097751020729 L 147.00812163667746,110.66447266438642 L 132.4054051060109,115.17582565726484 L 118.54996694169378,120.60038728523031 L 105.5752425874014,126.8859160544385 L 93.60618573137145,133.97187888682237 L 82.75806493407946,141.7900340867248 L 73.13535352898944,150.26508854573234 L 64.83072348724156,159.3154228564687 L 57.92415293591037,168.8538773521055 L 52.48215592492073,178.7885915016002 L 48.55714186038671,189.02388857682584 L 46.18691077338056,199.4611970717656 L 45.3942892849704,209.99999999999997 L 46.18691077338056,220.53880292823433 L 48.55714186038671,230.97611142317407 L 52.48215592492076,241.21140849839975 L 57.92415293591037,251.14612264789443 L 64.83072348724156,260.68457714353127 L 73.13535352898941,269.7349114542676 L 82.75806493407941,278.20996591327514 L 93.60618573137141,286.0281211131776 L 105.5752425874014,293.11408394556145 L 118.54996694169381,299.39961271476966 L 132.40540510601085,304.8241743427351 L 147.0081216366774,309.33552733561356 L 162.21748439084624,312.89022489792706 L 177.88701889091118,315.45403334895536 L 193.86581895379788,317.0022618117946 L 209.99999999999997,317.52" fill="none" opacity="0.8" stroke="#475569" stroke-width="1.4" /><path d="M 210.0,102.47999999999999 L 198.59141117333903,109.58449001835186 L 187.29269329364783,117.65603629052846 L 176.2126591906153,126.61690541357277 L 165.45801564961647,136.38079931932046 L 155.13233576703723,146.8536863719719 L 145.3350614847377,157.9347069441476 L 136.16054590979132,169.51714475023547 L 127.6971446424852,181.48945458255838 L 120.02636486358922,193.73633655270072 L 113.22208037564894,206.13984649246336 L 107.34982015788347,218.58053182067815 L 102.46613728629389,230.93858193686398 L 98.61806429662619,243.09498206280463 L 95.8426602353416,254.93265941992294 L 94.16665376074042,266.33761070413726 L 93.60618573137141,277.2 L 94.16665376074042,287.415216560606 L 95.8426602353416,296.8848822662712 L 98.6180642966262,305.5177990596042 L 102.46613728629389,313.2308272326529 L 107.34982015788347,319.9496861077407 L 113.22208037564893,325.60966940099865 L 120.02636486358918,330.15626837925106 L 127.69714464248517,333.5456968089136 L 136.16054590979132,335.74531264135845 L 145.33506148473774,336.7339323736869 L 155.1323357670372,336.5020350574422 L 165.4580156496164,335.0518539905476 L 176.2126591906153,332.39735520942696 L 187.2926932936478,328.5641029884392 L 198.59141117333903,323.5890136419411 L 209.99999999999997,317.52000000000004" fill="none" opacity="0.8" stroke="#475569" stroke-width="1.4" /><path d="M 210.0,102.47999999999999 L 210.0,112.31281195838433 L 210.0,123.08640493885842 L 210.0,134.6970233515753 L 209.99999999999997,147.03285059421086 L 209.99999999999997,159.9750859069694 L 209.99999999999997,173.39908848884357 L 209.99999999999997,187.17557785666366 L 209.99999999999997,201.17187888682238 L 209.99999999999997,215.2531995492429 L 209.99999999999997,229.28392902831325 L 209.99999999999994,243.12894372917302 L 209.99999999999994,256.654908591798 L 209.99999999999994,269.7315611805167 L 209.99999999999994,282.2329661824742 L 209.99999999999994,294.03872823353856 L 209.99999999999994,305.03515139147197 L 209.99999999999994,315.1163340900073 L 209.99999999999994,324.1851890288224 L 209.99999999999994,332.1543781773163 L 209.99999999999994,338.947153887587 L 209.99999999999994,344.4980980162356 L 209.99999999999997,348.7537519368485 L 209.99999999999997,351.6731313757933 L 209.99999999999997,353.22812111317756 L 209.99999999999997,353.4037457477866 L 209.99999999999997,352.19831391838295 L 209.99999999999997,349.6234345924397 L 209.99999999999997,345.70390526543804 L 209.99999999999997,340.4774731474295 L 210.0,333.99447163676916 L 210.0,326.31733558197357 L 210.0,317.52000000000004" fill="none" opacity="0.8" stroke="#475569" stroke-width="1.4" /><path d="M 210.0,102.47999999999999 L 221.40858882666097,109.58449001835186 L 232.70730670635217,117.65603629052846 L 243.78734080938466,126.61690541357277 L 254.54198435038353,136.3807993193205 L 264.86766423296274,146.8536863719719 L 274.66493851526224,157.9347069441476 L 283.8394540902086,169.5171447502355 L 292.3028553575148,181.48945458255838 L 299.97363513641073,193.73633655270075 L 306.77791962435106,206.1398464924634 L 312.6501798421165,218.58053182067817 L 317.53386271370607,230.938581936864 L 321.38193570337376,243.09498206280466 L 324.1573397646584,254.93265941992297 L 325.8333462392595,266.33761070413726 L 326.39381426862855,277.2 L 325.8333462392595,287.415216560606 L 324.1573397646584,296.8848822662712 L 321.38193570337376,305.5177990596042 L 317.53386271370607,313.2308272326529 L 312.6501798421165,319.9496861077407 L 306.77791962435106,325.60966940099865 L 299.9736351364108,330.15626837925106 L 292.3028553575148,333.5456968089136 L 283.8394540902086,335.74531264135845 L 274.66493851526224,336.73393237368697 L 264.8676642329628,336.5020350574422 L 254.54198435038356,335.0518539905476 L 243.78734080938466,332.39735520942696 L 232.7073067063522,328.5641029884392 L 221.40858882666097,323.5890136419411 L 210.00000000000003,317.52000000000004" fill="none" opacity="0.8" stroke="#475569" stroke-width="1.4" /><path d="M 210.0,102.47999999999999 L 226.13418104620212,102.99773818820537 L 242.11298110908876,104.54596665104465 L 257.78251560915373,107.10977510207292 L 272.99187836332254,110.66447266438645 L 287.5945948939891,115.17582565726487 L 301.45003305830625,120.60038728523035 L 314.4247574125986,126.88591605443852 L 326.39381426862855,133.97187888682242 L 337.24193506592053,141.79003408672486 L 346.86464647101053,150.2650885457324 L 355.1692765127584,159.31542285646876 L 362.07584706408966,168.85387735210557 L 367.51784407507927,178.78859150160025 L 371.44285813961335,189.02388857682593 L 373.81308922661947,199.46119707176567 L 374.6057107150296,210.00000000000003 L 373.81308922661947,220.53880292823442 L 371.44285813961335,230.97611142317413 L 367.5178440750792,241.2114084983998 L 362.07584706408966,251.1461226478945 L 355.1692765127584,260.6845771435313 L 346.8646464710106,269.73491145426766 L 337.2419350659206,278.20996591327514 L 326.3938142686286,286.0281211131776 L 314.4247574125986,293.1140839455615 L 301.4500330583062,299.3996127147697 L 287.59459489398915,304.82417434273515 L 272.9918783633226,309.33552733561356 L 257.7825156091538,312.8902248979271 L 242.11298110908882,315.45403334895536 L 226.13418104620212,317.0022618117946 L 210.00000000000003,317.52" fill="none" opacity="0.8" stroke="#475569" stroke-width="1.4" /><line stroke="#ef4444" stroke-width="2" x1="70.32742287764572" x2="349.67257712235426" y1="290.64" y2="129.36" /><line stroke="#22c55e" stroke-width="2" x1="349.67257712235426" x2="70.32742287764572" y1="290.64" y2="129.36" /><line stroke="#3b82f6" stroke-width="2" x1="210.0" x2="210.0" y1="339.024" y2="80.976" /><text fill="#ef4444" font-size="14" font-weight="bold" text-anchor="middle" x="372.95133997608" y="115.92000000000002">X</text><text fill="#22c55e" font-size="14" font-weight="bold" text-anchor="middle" x="47.04866002392001" y="115.92000000000002">Y</text><text fill="#3b82f6" font-size="14" font-weight="bold" text-anchor="middle" x="210.0" y="59.47200000000001">Z</text><g><circle cx="210.0" cy="102.47999999999999" fill="#9ca3af" r="3" stroke="#ffffff" stroke-width="1" /><text fill="#6b7280" font-size="10" x="218.0" y="105.47999999999999">|0⟩</text></g><g><circle cx="210.0" cy="317.52" fill="#9ca3af" r="3" stroke="#ffffff" stroke-width="1" /><text fill="#6b7280" font-size="10" x="218.0" y="320.52">|1⟩</text></g><g><circle cx="326.39381426862855" cy="142.8" fill="#9ca3af" r="3" stroke="#ffffff" stroke-width="1" /><text fill="#6b7280" font-size="10" x="334.39381426862855" y="145.8">|+⟩</text></g><g><circle cx="93.60618573137144" cy="277.2" fill="#9ca3af" r="3" stroke="#ffffff" stroke-width="1" /><text fill="#6b7280" font-size="10" x="101.60618573137144" y="280.2">|-⟩</text></g><g><circle cx="93.60618573137144" cy="142.8" fill="#9ca3af" r="3" stroke="#ffffff" stroke-width="1" /><text fill="#6b7280" font-size="10" x="101.60618573137144" y="145.8">|+i⟩</text></g><g><circle cx="326.39381426862855" cy="277.2" fill="#9ca3af" r="3" stroke="#ffffff" stroke-width="1" /><text fill="#6b7280" font-size="10" x="334.39381426862855" y="280.2">|-i⟩</text></g><g><line opacity="0.9" stroke="#4c1d95" stroke-width="4" x1="210" x2="210.0" y1="210" y2="102.47999999999999" /><line opacity="1" stroke="#7c3aed" stroke-width="2.5" x1="210" x2="210.0" y1="210" y2="102.47999999999999" /><circle cx="210.0" cy="102.47999999999999" fill="#7c3aed" r="8" stroke="#ffffff" stroke-width="3"><title>Current State: θ=0.0°, φ=0.0°
Bloch Vector: (0.0, 0.0, 1.0)
State: 1.0+0.0i |0⟩ + 0.0+0.0i |1⟩</title></circle><text fill="#4c1d95" font-size="18" font-weight="bold" paint-order="stroke" stroke="#ffffff" stroke-width="0.8" x="224.0" y="88.47999999999999">ψ</text></g><g><text fill="#374151" font-size="12" x="20" y="370">Bloch Vector: (0.0, 0.0, 1.0)</text><text fill="#374151" font-size="12" x="20" y="385">Coordinates: θ=0.0°, φ=0.0°</text><text fill="#374151" font-size="12" x="20" y="400">State: 1.0+0.0i |0⟩ + 0.0+0.0i |1⟩</text></g></svg>