<svg height="700" style="background-color: #ffffff; border: 1px solid #e5e7eb; border-radius: 8px;" width="1500" xmlns="http://www.w3.org/2000/svg"><defs><style>.gate-group:hover rect { opacity: 1; stroke-width: 3; }
                         .gate-group:hover circle { stroke-width: 3; }
                         text { font-family: 'SF Pro Display', 'Segoe UI', system-ui, sans-serif; }</style></defs><text fill="#111827" font-size="18" font-weight="bold" text-anchor="middle" x="750" y="35">Quantum Circuit</text><g><text fill="#374151" font-size="14" x="30" y="75">q0 |0⟩</text><line stroke="#9ca3af" stroke-width="2" x1="70" x2="1450" y1="70" y2="70" /></g><g><text fill="#374151" font-size="14" x="30" y="135">q1 |0⟩</text><line stroke="#9ca3af" stroke-width="2" x1="70" x2="1450" y1="130" y2="130" /></g><g><text fill="#374151" font-size="14" x="30" y="195">q2 |0⟩</text><line stroke="#9ca3af" stroke-width="2" x1="70" x2="1450" y1="190" y2="190" /></g><g><text fill="#374151" font-size="14" x="30" y="255">q3 |0⟩</text><line stroke="#9ca3af" stroke-width="2" x1="70" x2="1450" y1="250" y2="250" /></g><g><text fill="#374151" font-size="14" x="30" y="315">q4 |0⟩</text><line stroke="#9ca3af" stroke-width="2" x1="70" x2="1450" y1="310" y2="310" /></g><g><text fill="#374151" font-size="14" x="30" y="375">q5 |0⟩</text><line stroke="#9ca3af" stroke-width="2" x1="70" x2="1450" y1="370" y2="370" /></g><g><text fill="#374151" font-size="14" x="30" y="435">q6 |0⟩</text><line stroke="#9ca3af" stroke-width="2" x1="70" x2="1450" y1="430" y2="430" /></g><g><text fill="#374151" font-size="14" x="30" y="495">q7 |0⟩</text><line stroke="#9ca3af" stroke-width="2" x1="70" x2="1450" y1="490" y2="490" /></g><g><text fill="#374151" font-size="14" x="30" y="555">q8 |0⟩</text><line stroke="#9ca3af" stroke-width="2" x1="70" x2="1450" y1="550" y2="550" /></g><g><text fill="#374151" font-size="14" x="30" y="615">q9 |0⟩</text><line stroke="#9ca3af" stroke-width="2" x1="70" x2="1450" y1="610" y2="610" /></g><g class="gate-group"><circle cx="130" cy="70" fill="#374151" r="6" stroke="#ffffff" stroke-width="2" /><circle cx="130" cy="130" fill="none" r="12" stroke="#374151" stroke-width="2" /><line stroke="#374151" stroke-width="2" x1="122" x2="138" y1="130" y2="130" /><line stroke="#374151" stroke-width="2" x1="130" x2="130" y1="122" y2="138" /><line stroke="#374151" stroke-width="2" x1="130" x2="130" y1="70" y2="130" /><title>CNOT: control=0, target=1</title></g><g class="gate-group"><circle cx="190" cy="70" fill="#374151" r="6" stroke="#ffffff" stroke-width="2" /><circle cx="190" cy="190" fill="none" r="12" stroke="#374151" stroke-width="2" /><line stroke="#374151" stroke-width="2" x1="182" x2="198" y1="190" y2="190" /><line stroke="#374151" stroke-width="2" x1="190" x2="190" y1="182" y2="198" /><line stroke="#374151" stroke-width="2" x1="190" x2="190" y1="70" y2="190" /><title>CNOT: control=0, target=2</title></g><g class="gate-group"><circle cx="130" cy="250" fill="#374151" r="6" stroke="#ffffff" stroke-width="2" /><circle cx="130" cy="310" fill="none" r="12" stroke="#374151" stroke-width="2" /><line stroke="#374151" stroke-width="2" x1="122" x2="138" y1="310" y2="310" /><line stroke="#374151" stroke-width="2" x1="130" x2="130" y1="302" y2="318" /><line stroke="#374151" stroke-width="2" x1="130" x2="130" y1="250" y2="310" /><title>CNOT: control=3, target=4</title></g><g class="gate-group"><circle cx="190" cy="250" fill="#374151" r="6" stroke="#ffffff" stroke-width="2" /><circle cx="190" cy="370" fill="none" r="12" stroke="#374151" stroke-width="2" /><line stroke="#374151" stroke-width="2" x1="182" x2="198" y1="370" y2="370" /><line stroke="#374151" stroke-width="2" x1="190" x2="190" y1="362" y2="378" /><line stroke="#374151" stroke-width="2" x1="190" x2="190" y1="250" y2="370" /><title>CNOT: control=3, target=5</title></g><g class="gate-group"><rect fill="#8b5cf6" height="24" rx="4" stroke="#ffffff" stroke-width="2" width="30" x="235" y="58" /><text fill="#ffffff" font-size="12" font-weight="bold" text-anchor="middle" x="250" y="75">H</text><title>:h gate on qubit 0</title></g><g class="gate-group"><rect fill="#8b5cf6" height="24" rx="4" stroke="#ffffff" stroke-width="2" width="30" x="235" y="118" /><text fill="#ffffff" font-size="12" font-weight="bold" text-anchor="middle" x="250" y="135">H</text><title>:h gate on qubit 1</title></g><g class="gate-group"><rect fill="#8b5cf6" height="24" rx="4" stroke="#ffffff" stroke-width="2" width="30" x="235" y="178" /><text fill="#ffffff" font-size="12" font-weight="bold" text-anchor="middle" x="250" y="195">H</text><title>:h gate on qubit 2</title></g><g class="gate-group"><circle cx="310" cy="70" fill="#374151" r="6" stroke="#ffffff" stroke-width="2" /><circle cx="310" cy="250" fill="none" r="12" stroke="#374151" stroke-width="2" /><line stroke="#374151" stroke-width="2" x1="302" x2="318" y1="250" y2="250" /><line stroke="#374151" stroke-width="2" x1="310" x2="310" y1="242" y2="258" /><line stroke="#374151" stroke-width="2" x1="310" x2="310" y1="70" y2="250" /><title>CNOT: control=0, target=3</title></g><g class="gate-group"><circle cx="370" cy="70" fill="#374151" r="6" stroke="#ffffff" stroke-width="2" /><circle cx="370" cy="310" fill="none" r="12" stroke="#374151" stroke-width="2" /><line stroke="#374151" stroke-width="2" x1="362" x2="378" y1="310" y2="310" /><line stroke="#374151" stroke-width="2" x1="370" x2="370" y1="302" y2="318" /><line stroke="#374151" stroke-width="2" x1="370" x2="370" y1="70" y2="310" /><title>CNOT: control=0, target=4</title></g><g class="gate-group"><circle cx="430" cy="70" fill="#374151" r="6" stroke="#ffffff" stroke-width="2" /><circle cx="430" cy="370" fill="none" r="12" stroke="#374151" stroke-width="2" /><line stroke="#374151" stroke-width="2" x1="422" x2="438" y1="370" y2="370" /><line stroke="#374151" stroke-width="2" x1="430" x2="430" y1="362" y2="378" /><line stroke="#374151" stroke-width="2" x1="430" x2="430" y1="70" y2="370" /><title>CNOT: control=0, target=5</title></g><g class="gate-group"><circle cx="490" cy="130" fill="#374151" r="6" stroke="#ffffff" stroke-width="2" /><circle cx="490" cy="250" fill="none" r="12" stroke="#374151" stroke-width="2" /><line stroke="#374151" stroke-width="2" x1="482" x2="498" y1="250" y2="250" /><line stroke="#374151" stroke-width="2" x1="490" x2="490" y1="242" y2="258" /><line stroke="#374151" stroke-width="2" x1="490" x2="490" y1="130" y2="250" /><title>CNOT: control=1, target=3</title></g><g class="gate-group"><circle cx="550" cy="130" fill="#374151" r="6" stroke="#ffffff" stroke-width="2" /><circle cx="550" cy="310" fill="none" r="12" stroke="#374151" stroke-width="2" /><line stroke="#374151" stroke-width="2" x1="542" x2="558" y1="310" y2="310" /><line stroke="#374151" stroke-width="2" x1="550" x2="550" y1="302" y2="318" /><line stroke="#374151" stroke-width="2" x1="550" x2="550" y1="130" y2="310" /><title>CNOT: control=1, target=4</title></g><g class="gate-group"><circle cx="610" cy="130" fill="#374151" r="6" stroke="#ffffff" stroke-width="2" /><circle cx="610" cy="370" fill="none" r="12" stroke="#374151" stroke-width="2" /><line stroke="#374151" stroke-width="2" x1="602" x2="618" y1="370" y2="370" /><line stroke="#374151" stroke-width="2" x1="610" x2="610" y1="362" y2="378" /><line stroke="#374151" stroke-width="2" x1="610" x2="610" y1="130" y2="370" /><title>CNOT: control=1, target=5</title></g><g class="gate-group"><circle cx="670" cy="190" fill="#374151" r="6" stroke="#ffffff" stroke-width="2" /><circle cx="670" cy="250" fill="none" r="12" stroke="#374151" stroke-width="2" /><line stroke="#374151" stroke-width="2" x1="662" x2="678" y1="250" y2="250" /><line stroke="#374151" stroke-width="2" x1="670" x2="670" y1="242" y2="258" /><line stroke="#374151" stroke-width="2" x1="670" x2="670" y1="190" y2="250" /><title>CNOT: control=2, target=3</title></g><g class="gate-group"><circle cx="730" cy="190" fill="#374151" r="6" stroke="#ffffff" stroke-width="2" /><circle cx="730" cy="310" fill="none" r="12" stroke="#374151" stroke-width="2" /><line stroke="#374151" stroke-width="2" x1="722" x2="738" y1="310" y2="310" /><line stroke="#374151" stroke-width="2" x1="730" x2="730" y1="302" y2="318" /><line stroke="#374151" stroke-width="2" x1="730" x2="730" y1="190" y2="310" /><title>CNOT: control=2, target=4</title></g><g class="gate-group"><circle cx="790" cy="190" fill="#374151" r="6" stroke="#ffffff" stroke-width="2" /><circle cx="790" cy="370" fill="none" r="12" stroke="#374151" stroke-width="2" /><line stroke="#374151" stroke-width="2" x1="782" x2="798" y1="370" y2="370" /><line stroke="#374151" stroke-width="2" x1="790" x2="790" y1="362" y2="378" /><line stroke="#374151" stroke-width="2" x1="790" x2="790" y1="190" y2="370" /><title>CNOT: control=2, target=5</title></g><g class="gate-group"><circle cx="850" cy="70" fill="#374151" r="6" stroke="#ffffff" stroke-width="2" /><circle cx="850" cy="430" fill="none" r="12" stroke="#374151" stroke-width="2" /><line stroke="#374151" stroke-width="2" x1="842" x2="858" y1="430" y2="430" /><line stroke="#374151" stroke-width="2" x1="850" x2="850" y1="422" y2="438" /><line stroke="#374151" stroke-width="2" x1="850" x2="850" y1="70" y2="430" /><title>CNOT: control=0, target=6</title></g><g class="gate-group"><circle cx="910" cy="130" fill="#374151" r="6" stroke="#ffffff" stroke-width="2" /><circle cx="910" cy="430" fill="none" r="12" stroke="#374151" stroke-width="2" /><line stroke="#374151" stroke-width="2" x1="902" x2="918" y1="430" y2="430" /><line stroke="#374151" stroke-width="2" x1="910" x2="910" y1="422" y2="438" /><line stroke="#374151" stroke-width="2" x1="910" x2="910" y1="130" y2="430" /><title>CNOT: control=1, target=6</title></g><g class="gate-group"><circle cx="970" cy="130" fill="#374151" r="6" stroke="#ffffff" stroke-width="2" /><circle cx="970" cy="490" fill="none" r="12" stroke="#374151" stroke-width="2" /><line stroke="#374151" stroke-width="2" x1="962" x2="978" y1="490" y2="490" /><line stroke="#374151" stroke-width="2" x1="970" x2="970" y1="482" y2="498" /><line stroke="#374151" stroke-width="2" x1="970" x2="970" y1="130" y2="490" /><title>CNOT: control=1, target=7</title></g><g class="gate-group"><circle cx="1030" cy="190" fill="#374151" r="6" stroke="#ffffff" stroke-width="2" /><circle cx="1030" cy="490" fill="none" r="12" stroke="#374151" stroke-width="2" /><line stroke="#374151" stroke-width="2" x1="1022" x2="1038" y1="490" y2="490" /><line stroke="#374151" stroke-width="2" x1="1030" x2="1030" y1="482" y2="498" /><line stroke="#374151" stroke-width="2" x1="1030" x2="1030" y1="190" y2="490" /><title>CNOT: control=2, target=7</title></g><g class="gate-group"><circle cx="1090" cy="250" fill="#374151" r="6" stroke="#ffffff" stroke-width="2" /><circle cx="1090" cy="550" fill="none" r="12" stroke="#374151" stroke-width="2" /><line stroke="#374151" stroke-width="2" x1="1082" x2="1098" y1="550" y2="550" /><line stroke="#374151" stroke-width="2" x1="1090" x2="1090" y1="542" y2="558" /><line stroke="#374151" stroke-width="2" x1="1090" x2="1090" y1="250" y2="550" /><title>CNOT: control=3, target=8</title></g><g class="gate-group"><circle cx="1150" cy="310" fill="#374151" r="6" stroke="#ffffff" stroke-width="2" /><circle cx="1150" cy="550" fill="none" r="12" stroke="#374151" stroke-width="2" /><line stroke="#374151" stroke-width="2" x1="1142" x2="1158" y1="550" y2="550" /><line stroke="#374151" stroke-width="2" x1="1150" x2="1150" y1="542" y2="558" /><line stroke="#374151" stroke-width="2" x1="1150" x2="1150" y1="310" y2="550" /><title>CNOT: control=4, target=8</title></g><g class="gate-group"><circle cx="1210" cy="310" fill="#374151" r="6" stroke="#ffffff" stroke-width="2" /><circle cx="1210" cy="610" fill="none" r="12" stroke="#374151" stroke-width="2" /><line stroke="#374151" stroke-width="2" x1="1202" x2="1218" y1="610" y2="610" /><line stroke="#374151" stroke-width="2" x1="1210" x2="1210" y1="602" y2="618" /><line stroke="#374151" stroke-width="2" x1="1210" x2="1210" y1="310" y2="610" /><title>CNOT: control=4, target=9</title></g><g class="gate-group"><circle cx="1270" cy="370" fill="#374151" r="6" stroke="#ffffff" stroke-width="2" /><circle cx="1270" cy="610" fill="none" r="12" stroke="#374151" stroke-width="2" /><line stroke="#374151" stroke-width="2" x1="1262" x2="1278" y1="610" y2="610" /><line stroke="#374151" stroke-width="2" x1="1270" x2="1270" y1="602" y2="618" /><line stroke="#374151" stroke-width="2" x1="1270" x2="1270" y1="370" y2="610" /><title>CNOT: control=5, target=9</title></g><g><rect fill="#fbbf24" height="24" rx="4" stroke="#f59e0b" stroke-width="2" width="30" x="1455" y="58" /><text fill="#92400e" font-size="10" font-weight="bold" text-anchor="middle" x="1470" y="75">M</text><title>Measure qubit 0</title></g><g><rect fill="#fbbf24" height="24" rx="4" stroke="#f59e0b" stroke-width="2" width="30" x="1455" y="118" /><text fill="#92400e" font-size="10" font-weight="bold" text-anchor="middle" x="1470" y="135">M</text><title>Measure qubit 1</title></g><g><rect fill="#fbbf24" height="24" rx="4" stroke="#f59e0b" stroke-width="2" width="30" x="1455" y="178" /><text fill="#92400e" font-size="10" font-weight="bold" text-anchor="middle" x="1470" y="195">M</text><title>Measure qubit 2</title></g><g><rect fill="#fbbf24" height="24" rx="4" stroke="#f59e0b" stroke-width="2" width="30" x="1455" y="238" /><text fill="#92400e" font-size="10" font-weight="bold" text-anchor="middle" x="1470" y="255">M</text><title>Measure qubit 3</title></g><g><rect fill="#fbbf24" height="24" rx="4" stroke="#f59e0b" stroke-width="2" width="30" x="1455" y="298" /><text fill="#92400e" font-size="10" font-weight="bold" text-anchor="middle" x="1470" y="315">M</text><title>Measure qubit 4</title></g><g><rect fill="#fbbf24" height="24" rx="4" stroke="#f59e0b" stroke-width="2" width="30" x="1455" y="358" /><text fill="#92400e" font-size="10" font-weight="bold" text-anchor="middle" x="1470" y="375">M</text><title>Measure qubit 5</title></g><g><rect fill="#fbbf24" height="24" rx="4" stroke="#f59e0b" stroke-width="2" width="30" x="1455" y="418" /><text fill="#92400e" font-size="10" font-weight="bold" text-anchor="middle" x="1470" y="435">M</text><title>Measure qubit 6</title></g><g><rect fill="#fbbf24" height="24" rx="4" stroke="#f59e0b" stroke-width="2" width="30" x="1455" y="478" /><text fill="#92400e" font-size="10" font-weight="bold" text-anchor="middle" x="1470" y="495">M</text><title>Measure qubit 7</title></g><g><rect fill="#fbbf24" height="24" rx="4" stroke="#f59e0b" stroke-width="2" width="30" x="1455" y="538" /><text fill="#92400e" font-size="10" font-weight="bold" text-anchor="middle" x="1470" y="555">M</text><title>Measure qubit 8</title></g><g><rect fill="#fbbf24" height="24" rx="4" stroke="#f59e0b" stroke-width="2" width="30" x="1455" y="598" /><text fill="#92400e" font-size="10" font-weight="bold" text-anchor="middle" x="1470" y="615">M</text><title>Measure qubit 9</title></g><g><text fill="#6b7280" font-size="12" x="30" y="670">Qubits: 10 | Gates: 24 | Depth: 21</text></g></svg>