<svg height="280" style="background-color: #ffffff; border: 1px solid #e5e7eb; border-radius: 8px;" width="660" xmlns="http://www.w3.org/2000/svg"><defs><style>.gate-group:hover rect { opacity: 1; stroke-width: 3; }
                         .gate-group:hover circle { stroke-width: 3; }
                         text { font-family: 'SF Pro Display', 'Segoe UI', system-ui, sans-serif; }</style></defs><text fill="#111827" font-size="18" font-weight="bold" text-anchor="middle" x="330" y="35">QFT</text><g><text fill="#374151" font-size="14" x="30" y="75">q0 |0⟩</text><line stroke="#9ca3af" stroke-width="2" x1="70" x2="610" y1="70" y2="70" /></g><g><text fill="#374151" font-size="14" x="30" y="135">q1 |0⟩</text><line stroke="#9ca3af" stroke-width="2" x1="70" x2="610" y1="130" y2="130" /></g><g><text fill="#374151" font-size="14" x="30" y="195">q2 |0⟩</text><line stroke="#9ca3af" stroke-width="2" x1="70" x2="610" y1="190" y2="190" /></g><g class="gate-group"><rect fill="#8b5cf6" height="24" rx="4" stroke="#ffffff" stroke-width="2" width="30" x="115" y="58" /><text fill="#ffffff" font-size="12" font-weight="bold" text-anchor="middle" x="130" y="75">H</text><title>:h gate on qubit 0</title></g><g class="gate-group"><circle cx="190" cy="130" fill="#374151" r="6" stroke="#ffffff" stroke-width="2" /><rect fill="#6366f1" height="24" rx="4" stroke="#ffffff" stroke-width="2" width="30" x="175" y="58" /><text fill="#ffffff" font-size="12" font-weight="bold" text-anchor="middle" x="190" y="75">CRZ</text><line stroke="#374151" stroke-width="2" x1="190" x2="190" y1="70" y2="130" /><title>:crz gate: control=1, target=0, φ=π/2</title></g><g class="gate-group"><circle cx="250" cy="190" fill="#374151" r="6" stroke="#ffffff" stroke-width="2" /><rect fill="#6366f1" height="24" rx="4" stroke="#ffffff" stroke-width="2" width="30" x="235" y="58" /><text fill="#ffffff" font-size="12" font-weight="bold" text-anchor="middle" x="250" y="75">CRZ</text><line stroke="#374151" stroke-width="2" x1="250" x2="250" y1="70" y2="190" /><title>:crz gate: control=2, target=0, φ=π/4</title></g><g class="gate-group"><rect fill="#8b5cf6" height="24" rx="4" stroke="#ffffff" stroke-width="2" width="30" x="295" y="118" /><text fill="#ffffff" font-size="12" font-weight="bold" text-anchor="middle" x="310" y="135">H</text><title>:h gate on qubit 1</title></g><g class="gate-group"><circle cx="370" cy="190" fill="#374151" r="6" stroke="#ffffff" stroke-width="2" /><rect fill="#6366f1" height="24" rx="4" stroke="#ffffff" stroke-width="2" width="30" x="355" y="118" /><text fill="#ffffff" font-size="12" font-weight="bold" text-anchor="middle" x="370" y="135">CRZ</text><line stroke="#374151" stroke-width="2" x1="370" x2="370" y1="130" y2="190" /><title>:crz gate: control=2, target=1, φ=π/2</title></g><g class="gate-group"><rect fill="#8b5cf6" height="24" rx="4" stroke="#ffffff" stroke-width="2" width="30" x="415" y="178" /><text fill="#ffffff" font-size="12" font-weight="bold" text-anchor="middle" x="430" y="195">H</text><title>:h gate on qubit 2</title></g><g class="gate-group"><line stroke="#fb923c" stroke-width="2" x1="484" x2="496" y1="64" y2="76" /><line stroke="#fb923c" stroke-width="2" x1="484" x2="496" y1="76" y2="64" /><line stroke="#fb923c" stroke-width="2" x1="484" x2="496" y1="184" y2="196" /><line stroke="#fb923c" stroke-width="2" x1="484" x2="496" y1="196" y2="184" /><line stroke="#fb923c" stroke-width="2" x1="490" x2="490" y1="70" y2="190" /><title>SWAP: qubits 0 and 2</title></g><g><rect fill="#fbbf24" height="24" rx="4" stroke="#f59e0b" stroke-width="2" width="30" x="615" y="58" /><text fill="#92400e" font-size="10" font-weight="bold" text-anchor="middle" x="630" y="75">M</text><title>Measure qubit 0</title></g><g><rect fill="#fbbf24" height="24" rx="4" stroke="#f59e0b" stroke-width="2" width="30" x="615" y="118" /><text fill="#92400e" font-size="10" font-weight="bold" text-anchor="middle" x="630" y="135">M</text><title>Measure qubit 1</title></g><g><rect fill="#fbbf24" height="24" rx="4" stroke="#f59e0b" stroke-width="2" width="30" x="615" y="178" /><text fill="#92400e" font-size="10" font-weight="bold" text-anchor="middle" x="630" y="195">M</text><title>Measure qubit 2</title></g><g><text fill="#6b7280" font-size="12" x="30" y="250">Qubits: 3 | Gates: 7 | Depth: 7</text><text fill="#6b7280" font-size="12" x="30" y="265">Quantum Fourier Transform</text></g></svg>