<svg height="400" style="background-color: #f9fafb; border: 1px solid #e5e7eb; border-radius: 8px;" width="600" xmlns="http://www.w3.org/2000/svg"><defs><style>text { font-family: 'SF Pro Display', 'Segoe UI', system-ui, sans-serif; }
                     rect:hover { opacity: 1; stroke-width: 2; }</style></defs><text fill="#111827" font-size="16" font-weight="bold" text-anchor="middle" x="300" y="25">Measurement Results (10000 shots)</text><text fill="#374151" font-size="12" text-anchor="middle" transform="rotate(-90 20 200)" x="20" y="200">Measurement Counts</text><text fill="#374151" font-size="12" text-anchor="middle" x="300" y="390">Basis States</text><g><line stroke="#9ca3af" stroke-width="1" x1="80" x2="80" y1="60" y2="300" /><g><line stroke="#9ca3af" stroke-width="1" x1="75" x2="80" y1="300" y2="300" /><text fill="#6b7280" font-size="10" text-anchor="end" x="70" y="303">0</text></g><g><line stroke="#9ca3af" stroke-width="1" x1="75" x2="80" y1="252" y2="252" /><text fill="#6b7280" font-size="10" text-anchor="end" x="70" y="255">998</text></g><g><line stroke="#9ca3af" stroke-width="1" x1="75" x2="80" y1="204" y2="204" /><text fill="#6b7280" font-size="10" text-anchor="end" x="70" y="207">1996</text></g><g><line stroke="#9ca3af" stroke-width="1" x1="75" x2="80" y1="156" y2="156" /><text fill="#6b7280" font-size="10" text-anchor="end" x="70" y="159">2994</text></g><g><line stroke="#9ca3af" stroke-width="1" x1="75" x2="80" y1="108" y2="108" /><text fill="#6b7280" font-size="10" text-anchor="end" x="70" y="111">3992</text></g><g><line stroke="#9ca3af" stroke-width="1" x1="75" x2="80" y1="60" y2="60" /><text fill="#6b7280" font-size="10" text-anchor="end" x="70" y="63">4990</text></g></g><line stroke="#9ca3af" stroke-width="1" x1="80" x2="560" y1="300" y2="300" /><g class="bar-group"><rect fill="#7c3aed" height="240" opacity="0.8" stroke="#ffffff" stroke-width="1" width="58" x="80" y="60"><title>|000⟩: 4990 shots (49.9%)</title></rect><text fill="#374151" font-size="12" text-anchor="middle" x="110" y="320">|000⟩</text><text fill="#6b7280" font-size="10" text-anchor="middle" x="110" y="55">4990 shots</text></g><g class="bar-group"><rect fill="#3b82f6" height="237.21042" opacity="0.8" stroke="#ffffff" stroke-width="1" width="58" x="140" y="62.789577"><title>|111⟩: 4932 shots (49.3%)</title></rect><text fill="#374151" font-size="12" text-anchor="middle" x="170" y="320">|111⟩</text><text fill="#6b7280" font-size="10" text-anchor="middle" x="170" y="57.789577">4932 shots</text></g><g class="bar-group"><rect fill="#10b981" height="0.91382766" opacity="0.8" stroke="#ffffff" stroke-width="1" width="58" x="200" y="299.08618"><title>|110⟩: 19 shots (0.2%)</title></rect><text fill="#374151" font-size="12" text-anchor="middle" x="230" y="320">|110⟩</text><text fill="#6b7280" font-size="10" text-anchor="middle" x="230" y="294.08618">19 shots</text></g><g class="bar-group"><rect fill="#f59e0b" height="0.8657315" opacity="0.8" stroke="#ffffff" stroke-width="1" width="58" x="260" y="299.13428"><title>|101⟩: 18 shots (0.2%)</title></rect><text fill="#374151" font-size="12" text-anchor="middle" x="290" y="320">|101⟩</text><text fill="#6b7280" font-size="10" text-anchor="middle" x="290" y="294.13428">18 shots</text></g><g class="bar-group"><rect fill="#ef4444" height="0.76953906" opacity="0.8" stroke="#ffffff" stroke-width="1" width="58" x="320" y="299.23047"><title>|010⟩: 16 shots (0.2%)</title></rect><text fill="#374151" font-size="12" text-anchor="middle" x="350" y="320">|010⟩</text><text fill="#6b7280" font-size="10" text-anchor="middle" x="350" y="294.23047">16 shots</text></g><g class="bar-group"><rect fill="#8b5cf6" height="0.5290581" opacity="0.8" stroke="#ffffff" stroke-width="1" width="58" x="380" y="299.47095"><title>|011⟩: 11 shots (0.1%)</title></rect><text fill="#374151" font-size="12" text-anchor="middle" x="410" y="320">|011⟩</text><text fill="#6b7280" font-size="10" text-anchor="middle" x="410" y="294.47095">11 shots</text></g><g class="bar-group"><rect fill="#06b6d4" height="0.48096192" opacity="0.8" stroke="#ffffff" stroke-width="1" width="58" x="440" y="299.51904"><title>|001⟩: 10 shots (0.1%)</title></rect><text fill="#374151" font-size="12" text-anchor="middle" x="470" y="320">|001⟩</text><text fill="#6b7280" font-size="10" text-anchor="middle" x="470" y="294.51904">10 shots</text></g><g class="bar-group"><rect fill="#84cc16" height="0.19238476" opacity="0.8" stroke="#ffffff" stroke-width="1" width="58" x="500" y="299.80762"><title>|100⟩: 4 shots (0.0%)</title></rect><text fill="#374151" font-size="12" text-anchor="middle" x="530" y="320">|100⟩</text><text fill="#6b7280" font-size="10" text-anchor="middle" x="530" y="294.80762">4 shots</text></g></svg>