<svg height="420" style="background-color: #ffffff; border: 1px solid #e5e7eb; border-radius: 8px;" width="620" xmlns="http://www.w3.org/2000/svg"><defs><style>.gate-group:hover rect { opacity: 1; stroke-width: 3; }
                         .gate-group:hover circle { stroke-width: 3; }
                         text { font-family: &apos;SF Pro Display&apos;, &apos;Segoe UI&apos;, system-ui, sans-serif; }</style></defs><text fill="#111827" font-size="18" font-weight="bold" text-anchor="middle" x="310" y="25">Bernstein-Vazirani Algorithm</text><g><text fill="#374151" font-size="14" x="20" y="45">q0 |0⟩</text><line stroke="#9ca3af" stroke-width="2" x1="100" x2="580" y1="40" y2="40"></line></g><g><text fill="#374151" font-size="14" x="20" y="105">q1 |0⟩</text><line stroke="#9ca3af" stroke-width="2" x1="100" x2="580" y1="100" y2="100"></line></g><g><text fill="#374151" font-size="14" x="20" y="165">q2 |0⟩</text><line stroke="#9ca3af" stroke-width="2" x1="100" x2="580" y1="160" y2="160"></line></g><g><text fill="#374151" font-size="14" x="20" y="225">q3 |0⟩</text><line stroke="#9ca3af" stroke-width="2" x1="100" x2="580" y1="220" y2="220"></line></g><g><text fill="#374151" font-size="14" x="20" y="285">q4 |0⟩</text><line stroke="#9ca3af" stroke-width="2" x1="100" x2="580" y1="280" y2="280"></line></g><g class="gate-group"><rect fill="#ef4444" height="24" rx="4" stroke="#ffffff" stroke-width="2" width="30" x="145" y="268"></rect><text fill="#ffffff" font-size="12" font-weight="bold" text-anchor="middle" x="160" y="285">X</text><title>:x gate on qubit 4</title></g><g class="gate-group"><rect fill="#8b5cf6" height="24" rx="4" stroke="#ffffff" stroke-width="2" width="30" x="145" y="28"></rect><text fill="#ffffff" font-size="12" font-weight="bold" text-anchor="middle" x="160" y="45">H</text><title>:h gate on qubit 0</title></g><g class="gate-group"><rect fill="#8b5cf6" height="24" rx="4" stroke="#ffffff" stroke-width="2" width="30" x="145" y="88"></rect><text fill="#ffffff" font-size="12" font-weight="bold" text-anchor="middle" x="160" y="105">H</text><title>:h gate on qubit 1</title></g><g class="gate-group"><rect fill="#8b5cf6" height="24" rx="4" stroke="#ffffff" stroke-width="2" width="30" x="145" y="148"></rect><text fill="#ffffff" font-size="12" font-weight="bold" text-anchor="middle" x="160" y="165">H</text><title>:h gate on qubit 2</title></g><g class="gate-group"><rect fill="#8b5cf6" height="24" rx="4" stroke="#ffffff" stroke-width="2" width="30" x="145" y="208"></rect><text fill="#ffffff" font-size="12" font-weight="bold" text-anchor="middle" x="160" y="225">H</text><title>:h gate on qubit 3</title></g><g class="gate-group"><rect fill="#8b5cf6" height="24" rx="4" stroke="#ffffff" stroke-width="2" width="30" x="205" y="268"></rect><text fill="#ffffff" font-size="12" font-weight="bold" text-anchor="middle" x="220" y="285">H</text><title>:h gate on qubit 4</title></g><g class="gate-group"><circle cx="280" cy="40" fill="#374151" r="6" stroke="#ffffff" stroke-width="2"></circle><circle cx="280" cy="280" fill="none" r="12" stroke="#374151" stroke-width="2"></circle><line stroke="#374151" stroke-width="2" x1="272" x2="288" y1="280" y2="280"></line><line stroke="#374151" stroke-width="2" x1="280" x2="280" y1="272" y2="288"></line><line stroke="#374151" stroke-width="2" x1="280" x2="280" y1="40" y2="280"></line><title>CNOT: control=0, target=4</title></g><g class="gate-group"><circle cx="340" cy="160" fill="#374151" r="6" stroke="#ffffff" stroke-width="2"></circle><circle cx="340" cy="280" fill="none" r="12" stroke="#374151" stroke-width="2"></circle><line stroke="#374151" stroke-width="2" x1="332" x2="348" y1="280" y2="280"></line><line stroke="#374151" stroke-width="2" x1="340" x2="340" y1="272" y2="288"></line><line stroke="#374151" stroke-width="2" x1="340" x2="340" y1="160" y2="280"></line><title>CNOT: control=2, target=4</title></g><g class="gate-group"><rect fill="#8b5cf6" height="24" rx="4" stroke="#ffffff" stroke-width="2" width="30" x="325" y="28"></rect><text fill="#ffffff" font-size="12" font-weight="bold" text-anchor="middle" x="340" y="45">H</text><title>:h gate on qubit 0</title></g><g class="gate-group"><rect fill="#8b5cf6" height="24" rx="4" stroke="#ffffff" stroke-width="2" width="30" x="325" y="88"></rect><text fill="#ffffff" font-size="12" font-weight="bold" text-anchor="middle" x="340" y="105">H</text><title>:h gate on qubit 1</title></g><g class="gate-group"><rect fill="#8b5cf6" height="24" rx="4" stroke="#ffffff" stroke-width="2" width="30" x="385" y="148"></rect><text fill="#ffffff" font-size="12" font-weight="bold" text-anchor="middle" x="400" y="165">H</text><title>:h gate on qubit 2</title></g><g class="gate-group"><rect fill="#8b5cf6" height="24" rx="4" stroke="#ffffff" stroke-width="2" width="30" x="385" y="208"></rect><text fill="#ffffff" font-size="12" font-weight="bold" text-anchor="middle" x="400" y="225">H</text><title>:h gate on qubit 3</title></g><g><rect fill="#fbbf24" height="24" rx="4" stroke="#f59e0b" stroke-width="2" width="30" x="585" y="28"></rect><text fill="#92400e" font-size="10" font-weight="bold" text-anchor="middle" x="600" y="45">M</text><title>Measure qubit 0</title></g><g><rect fill="#fbbf24" height="24" rx="4" stroke="#f59e0b" stroke-width="2" width="30" x="585" y="88"></rect><text fill="#92400e" font-size="10" font-weight="bold" text-anchor="middle" x="600" y="105">M</text><title>Measure qubit 1</title></g><g><rect fill="#fbbf24" height="24" rx="4" stroke="#f59e0b" stroke-width="2" width="30" x="585" y="148"></rect><text fill="#92400e" font-size="10" font-weight="bold" text-anchor="middle" x="600" y="165">M</text><title>Measure qubit 2</title></g><g><rect fill="#fbbf24" height="24" rx="4" stroke="#f59e0b" stroke-width="2" width="30" x="585" y="208"></rect><text fill="#92400e" font-size="10" font-weight="bold" text-anchor="middle" x="600" y="225">M</text><title>Measure qubit 3</title></g><g><rect fill="#fbbf24" height="24" rx="4" stroke="#f59e0b" stroke-width="2" width="30" x="585" y="268"></rect><text fill="#92400e" font-size="10" font-weight="bold" text-anchor="middle" x="600" y="285">M</text><title>Measure qubit 4</title></g><g><text fill="#6b7280" font-size="12" x="20" y="380">Qubits: 5 | Gates: 12 | Depth: 6</text><text fill="#6b7280" font-size="12" x="20" y="395">Finds hidden bit string s with one query</text></g></svg>