<svg height="300" style="background-color: #ffffff; border: 1px solid #e5e7eb; border-radius: 8px;" width="940" xmlns="http://www.w3.org/2000/svg"><defs><style>.gate-group:hover rect { opacity: 1; stroke-width: 3; }
                         .gate-group:hover circle { stroke-width: 3; }
                         text { font-family: &apos;SF Pro Display&apos;, &apos;Segoe UI&apos;, system-ui, sans-serif; }</style></defs><text fill="#111827" font-size="18" font-weight="bold" text-anchor="middle" x="450" y="25">Complex Circuit</text><g><text fill="#374151" font-size="14" x="20" y="45">q0 |0⟩</text><line stroke="#9ca3af" stroke-width="2" x1="100" x2="1060" y1="40" y2="40"></line></g><g><text fill="#374151" font-size="14" x="20" y="105">q1 |0⟩</text><line stroke="#9ca3af" stroke-width="2" x1="100" x2="1060" y1="100" y2="100"></line></g><g><text fill="#374151" font-size="14" x="20" y="165">q2 |0⟩</text><line stroke="#9ca3af" stroke-width="2" x1="100" x2="1060" y1="160" y2="160"></line></g><g class="gate-group"><rect fill="#8b5cf6" height="24" rx="4" stroke="#ffffff" stroke-width="2" width="30" x="165" y="28"></rect><text fill="#ffffff" font-size="12" font-weight="bold" text-anchor="middle" x="180" y="45">H</text><title>:h gate on qubit 0</title></g><g class="gate-group"><circle cx="260" cy="40" fill="#374151" r="6" stroke="#ffffff" stroke-width="2"></circle><circle cx="260" cy="100" fill="none" r="12" stroke="#374151" stroke-width="2"></circle><line stroke="#374151" stroke-width="2" x1="252" x2="268" y1="100" y2="100"></line><line stroke="#374151" stroke-width="2" x1="260" x2="260" y1="92" y2="108"></line><line stroke="#374151" stroke-width="2" x1="260" x2="260" y1="40" y2="100"></line><title>CNOT: control=0, target=1</title></g><g class="gate-group"><circle cx="340" cy="100" fill="#374151" r="6" stroke="#ffffff" stroke-width="2"></circle><circle cx="340" cy="160" fill="none" r="12" stroke="#3b82f6" stroke-width="2"></circle><text fill="#3b82f6" font-size="12" font-weight="bold" text-anchor="middle" x="340" y="165">Z</text><line stroke="#374151" stroke-width="2" x1="340" x2="340" y1="100" y2="160"></line><title>CZ: control=1, target=2</title></g><g class="gate-group"><rect fill="#f59e0b" height="24" rx="4" stroke="#ffffff" stroke-width="2" width="30" x="405" y="28"></rect><text fill="#ffffff" font-size="12" font-weight="bold" text-anchor="middle" x="420" y="45">S†</text><title>:s-dag gate on qubit 0</title></g><g class="gate-group"><rect fill="#06b6d4" height="24" rx="4" stroke="#ffffff" stroke-width="2" width="30" x="485" y="88"></rect><text fill="#ffffff" font-size="12" font-weight="bold" text-anchor="middle" x="500" y="105">T†</text><title>:t-dag gate on qubit 1</title></g><g class="gate-group"><rect fill="#ec4899" height="24" rx="4" stroke="#ffffff" stroke-width="2" width="30" x="565" y="148"></rect><text fill="#ffffff" font-size="12" font-weight="bold" text-anchor="middle" x="580" y="165">RX</text><title>:rx gate on qubit 2</title></g><g class="gate-group"><rect fill="#10b981" height="24" rx="4" stroke="#ffffff" stroke-width="2" width="30" x="645" y="148"></rect><text fill="#ffffff" font-size="12" font-weight="bold" text-anchor="middle" x="660" y="165">RY</text><title>:ry gate on qubit 2</title></g><g class="gate-group"><rect fill="#6366f1" height="24" rx="4" stroke="#ffffff" stroke-width="2" width="30" x="725" y="148"></rect><text fill="#ffffff" font-size="12" font-weight="bold" text-anchor="middle" x="740" y="165">RZ</text><title>:rz gate on qubit 2</title></g><g class="gate-group"><circle cx="820" cy="40" fill="#374151" r="6" stroke="#ffffff" stroke-width="2"></circle><circle cx="820" cy="100" fill="#374151" r="6" stroke="#ffffff" stroke-width="2"></circle><circle cx="820" cy="160" fill="none" r="12" stroke="#374151" stroke-width="2"></circle><line stroke="#374151" stroke-width="2" x1="812" x2="828" y1="160" y2="160"></line><line stroke="#374151" stroke-width="2" x1="820" x2="820" y1="152" y2="168"></line><line stroke="#374151" stroke-width="2" x1="820" x2="820" y1="40" y2="160"></line><line stroke="#374151" stroke-width="2" x1="820" x2="820" y1="100" y2="160"></line><title>Toffoli (CCX): controls=[0, 1], target=2</title></g><g class="gate-group"><circle cx="900" cy="100" fill="#374151" r="6" stroke="#ffffff" stroke-width="2"></circle><line stroke="#fb923c" stroke-width="2" x1="894" x2="906" y1="154" y2="166"></line><line stroke="#fb923c" stroke-width="2" x1="894" x2="906" y1="166" y2="154"></line><line stroke="#fb923c" stroke-width="2" x1="894" x2="906" y1="34" y2="46"></line><line stroke="#fb923c" stroke-width="2" x1="894" x2="906" y1="46" y2="34"></line><line stroke="#374151" stroke-width="2" x1="900" x2="900" y1="40" y2="160"></line><title>Fredkin (CSWAP): control=1, targets=[2, 0]</title></g><g><rect fill="#fbbf24" height="24" rx="4" stroke="#f59e0b" stroke-width="2" width="30" x="1065" y="28"></rect><text fill="#92400e" font-size="10" font-weight="bold" text-anchor="middle" x="1080" y="45">M</text><title>Measure qubit 0</title></g><g><rect fill="#fbbf24" height="24" rx="4" stroke="#f59e0b" stroke-width="2" width="30" x="1065" y="88"></rect><text fill="#92400e" font-size="10" font-weight="bold" text-anchor="middle" x="1080" y="105">M</text><title>Measure qubit 1</title></g><g><rect fill="#fbbf24" height="24" rx="4" stroke="#f59e0b" stroke-width="2" width="30" x="1065" y="148"></rect><text fill="#92400e" font-size="10" font-weight="bold" text-anchor="middle" x="1080" y="165">M</text><title>Measure qubit 2</title></g><g><text fill="#6b7280" font-size="12" x="20" y="260">Qubits: 3 | Gates: 10 | Depth: 7</text></g></svg>